<?xml version="1.0" standalone="no"?>
<!DOCTYPE svg PUBLIC "-//W3C//DTD SVG 1.1//EN" "http://www.w3.org/Graphics/SVG/1.1/DTD/svg11.dtd" >
<!--
2013-9-30: Created.
-->
<svg>
<metadata>
Created by iconfont
</metadata>
<defs>

<font id="iuifont" horiz-adv-x="1024" >
  <font-face
    font-family="iuifont"
    font-weight="500"
    font-stretch="normal"
    units-per-em="1024"
    ascent="896"
    descent="-128"
  />
    <missing-glyph />
    
    <glyph glyph-name="x" unicode="x" horiz-adv-x="1001"
d="M281 543q-27 -1 -53 -1h-83q-18 0 -36.5 -6t-32.5 -18.5t-23 -32t-9 -45.5v-76h912v41q0 16 -0.5 30t-0.5 18q0 13 -5 29t-17 29.5t-31.5 22.5t-49.5 9h-133v-97h-438v97zM955 310v-52q0 -23 0.5 -52t0.5 -58t-10.5 -47.5t-26 -30t-33 -16t-31.5 -4.5q-14 -1 -29.5 -0.5
t-29.5 0.5h-32l-45 128h-439l-44 -128h-29h-34q-20 0 -45 1q-25 0 -41 9.5t-25.5 23t-13.5 29.5t-4 30v167h911zM163 247q-12 0 -21 -8.5t-9 -21.5t9 -21.5t21 -8.5q13 0 22 8.5t9 21.5t-9 21.5t-22 8.5zM316 123q-8 -26 -14 -48q-5 -19 -10.5 -37t-7.5 -25t-3 -15t1 -14.5
t9.5 -10.5t21.5 -4h37h67h81h80h64h36q23 0 34 12t2 38q-5 13 -9.5 30.5t-9.5 34.5q-5 19 -11 39h-368zM336 498v228q0 11 2.5 23t10 21.5t20.5 15.5t34 6h188q31 0 51.5 -14.5t20.5 -52.5v-227h-327z" />
    

    
    <glyph glyph-name="cloud" unicode="&#58963;" d="M16.5 800v0zM32.5 800v0zM48.5 800v0zM64.5 800v0zM80.5 800v0zM96.5 800v0zM112.5 800v0zM128.5 800v0zM144.5 800v0zM160.5 800v0zM176.5 800v0zM192.5 800v0zM208.5 800v0zM224.5 800v0zM240.5 800v0zM256.5 800v0zM272.5 800v0zM288.5 800v0zM304.5 800v0zM320.5 800v0zM336.5 800v0zM352.5 800v0zM368.5 800v0zM384.5 800v0zM400.5 800v0zM416.5 800v0zM432.5 800v0zM448.5 800v0zM464.5 800v0zM480.5 800v0zM496.5 800v0zM512.5 800v0zM528.5 800v0zM544.5 800v0zM560.5 800v0zM576.5 800v0zM592.5 800v0zM608.5 800v0zM624.5 800v0zM640.5 800v0zM656.5 800v0zM672.5 800v0zM688.5 800v0zM704.5 800v0zM720.5 800v0zM736.5 800v0zM752.5 800v0zM768.5 800v0zM784.5 800v0zM800.5 800v0zM816.5 800v0zM832.5 800v0zM848.5 800v0zM864.5 800v0zM880.5 800v0zM896.5 800v0zM912.5 800v0zM928.5 800v0zM944.5 800v0zM960.5 800v0zM976.5 800v0zM992.5 800v0zM1008.5 800v0zM0.5 784v0zM0.5 768v0zM0.5 752v0zM0.5 736v0zM0.5 720v0zM0.5 704v0zM0.5 688v0zM0.5 672v0zM0.5 656v0zM0.5 640v0zM0.5 624v0zM0.5 608v0zM0.5 592v0zM0.5 576v0zM0.5 560v0zM0.5 544v0zM0.5 528v0zM0.5 512v0zM0.5 496v0zM0.5 480v0zM0.5 464v0zM0.5 448v0zM0.5 432v0zM0.5 416v0zM0.5 400v0zM0.5 384v0zM0.5 368v0zM0.5 352v0zM0.5 336v0zM0.5 320v0zM0.5 304v0zM0.5 288v0zM0.5 272v0zM0.5 256v0zM0.5 240v0zM0.5 224v0zM0.5 208v0zM0.5 192v0zM0.5 176v0zM0.5 160v0zM0.5 144v0zM0.5 128v0zM0.5 112v0zM0.5 96v0zM0.5 80v0zM0.5 64v0zM0.5 48v0zM0.5 32v0zM0.5 16v0zM0.5 0v0zM0.5-16v0zM0.5-32v0zM0.5-48v0zM0.5-64v0zM0.5-80v0zM0.5-96v0zM0.5-112v0zM0.5-128v0zM0.5-144v0zM0.5-160v0zM0.5-176v0zM0.5-192v0zM0.5-208v0zM829.748 379.424c-13.984 146.016-135.552 260.576-285.248 260.576-115.808 0-214.944-68.736-260.672-167.36-13.76 4.352-28.096 7.36-43.296 7.36-79.52 0-144-64.512-144-144 0-15.808 3.168-30.752 7.872-44.928-61.856-36.064-103.872-102.24-103.872-179.008 0-114.88 93.12-208 208-208v-0.064l575.968 0.064c132.576 0 240 107.424 240 240 0 116.992-83.872 214.176-194.752 235.36zM784.5-31.936v-0.064h-575.968c-79.392 0.064-144 64.64-144 144.064 0 51.2 26.976 97.44 72.128 123.744 43.872 25.184 46.88 30.176 28.48 75.424-3.104 9.312-4.608 17.408-4.608 24.736 0 44.128 35.872 80 80 80 0 0 20.992 1.504 43.296-7.36 36.704-14.624 40.704-0.64 58.048 37.088 36.704 79.136 116.224 130.304 202.624 130.304 115.2 0 210.432-87.136 221.568-202.688 3.936-45.824 3.936-45.824 51.68-56.736 82.752-15.808 142.752-88.384 142.752-172.512 0-97.056-78.944-176-176-176z"  horiz-adv-x="1025" />

    
    <glyph glyph-name="right" unicode="&#58921;" d="M967.617363 364.61448700000005c0 244.531296-200.372563 442.761056-447.545012 442.761056-247.171426 0-447.543989-198.22976-447.543989-442.761056 0-1.440815 0.016373-2.87856 0.029676-4.315282-0.014326-1.436722-0.029676-2.876514-0.029676-4.317329 0-244.531296 200.372563-442.761056 447.543989-442.761056 247.172449 0 447.545012 198.22976 447.545012 442.761056 0 1.440815-0.016373 2.879584-0.029676 4.317329C967.600991 361.73592699999995 967.617363 363.172649 967.617363 364.61448700000005zM720.028429 319.633017c-1.496074-1.497097-3.062755-2.876514-4.679579-4.160763L475.2147 78.40290700000003c-21.351284-21.351284-55.967686-21.351284-77.31897 0s-21.350261 55.965639 0 77.317946l205.89637 202.828498L397.896754 564.876534c-21.350261 21.350261-21.350261 55.966663 0 77.317946 21.350261 21.350261 55.966663 21.350261 77.31897 0L715.351919 401.627473c1.6158-1.286296 3.181459-2.664689 4.676509-4.15974 10.740622-10.740622 16.07307-24.838711 16.006556-38.918381C736.101499 344.47377500000005 730.769051 330.375685 720.028429 319.633017z"  horiz-adv-x="1024" />

    
    <glyph glyph-name="shopping" unicode="&#58881;" d="M915.2-53.333333l-61.866667 618.666666h-682.666666l-61.866667-618.666666h806.4z m-872.533333-21.333334l66.133333 661.333334c2.133333 23.466667 23.466667 42.666667 46.933333 42.666666h712.533334c23.466667 0 44.8-19.2 46.933333-42.666666l66.133333-661.333334c2.133333-23.466667-14.933333-42.666667-38.4-42.666666h-861.866666c-23.466667 0-40.533333 19.2-38.4 42.666666zM736 501.333333c-17.066667 0-32 14.933333-32 32v149.333334c0 72.533333-83.2 138.666667-192 138.666666s-192-66.133333-192-138.666666v-149.333334c0-17.066667-14.933333-32-32-32s-32 14.933333-32 32v149.333334c0 110.933333 115.2 202.666667 256 202.666666s256-89.6 256-202.666666v-149.333334c0-17.066667-14.933333-32-32-32z m0 0c-17.066667 0-32 14.933333-32 32v149.333334c0 72.533333-83.2 138.666667-192 138.666666s-192-66.133333-192-138.666666v-149.333334c0-17.066667-14.933333-32-32-32s-32 14.933333-32 32v149.333334c0 110.933333 115.2 202.666667 256 202.666666s256-89.6 256-202.666666v-149.333334c0-17.066667-14.933333-32-32-32z"  horiz-adv-x="1024" />

    
    <glyph glyph-name="pic" unicode="&#58883;" d="M362.667 437.333c64 0 117.333 53.333 117.333 117.333s-53.333 117.333-117.333 117.333-117.333-53.333-117.333-117.333 53.333-117.333 117.333-117.333zM362.667 608c29.867 0 53.333-23.467 53.333-53.333s-23.467-53.333-53.333-53.333-53.333 23.467-53.333 53.333 23.467 53.333 53.333 53.333zM785.067 520.533c-17.067 0-32-14.933-32-32 2.133-61.867-12.8-232.533-89.6-281.6-32-19.2-72.533-17.067-123.733 8.533-87.467 87.467-164.267 121.6-228.267 100.267-91.733-29.867-115.2-157.867-115.2-162.133-2.133-17.067 8.533-34.133 25.6-36.267h6.4c14.933 0 29.867 10.667 32 25.6 4.267 25.6 25.6 98.133 72.533 113.067 40.533 12.8 98.133-19.2 168.533-89.6 2.133-2.133 6.4-4.267 8.533-6.4 74.667-38.4 138.667-40.533 192-6.4 121.6 76.8 119.467 326.4 119.467 337.067-4.267 17.067-19.2 29.867-36.267 29.867zM896 842.667h-768c-40.533 0-74.667-34.133-74.667-74.667v-768c0-40.533 34.133-74.667 74.667-74.667h768c40.533 0 74.667 34.133 74.667 74.667v768c0 40.533-34.133 74.667-74.667 74.667zM906.667 0c0-6.4-4.267-10.667-10.667-10.667h-768c-6.4 0-10.667 4.267-10.667 10.667v768c0 6.4 4.267 10.667 10.667 10.667h768c6.4 0 10.667-4.267 10.667-10.667v-768z"  horiz-adv-x="1024" />

    
    <glyph glyph-name="pic-s" unicode="&#58885;" d="M309.333 554.667c0-29.455 23.878-53.333 53.333-53.333s53.333 23.878 53.333 53.333c0 29.455-23.878 53.333-53.333 53.333-29.455 0-53.333-23.878-53.333-53.333zM896 842.667h-768c-40.533 0-74.667-34.133-74.667-74.667v-768c0-40.533 34.133-74.667 74.667-74.667h768c40.533 0 74.667 34.133 74.667 74.667v768c0 40.533-34.133 74.667-74.667 74.667zM362.667 672c64 0 117.333-53.333 117.333-117.333s-53.333-117.333-117.333-117.333-117.333 53.333-117.333 117.333 53.333 117.333 117.333 117.333zM697.6 151.467c-53.333-32-117.333-29.867-192 6.4-2.133 2.133-6.4 4.267-8.533 6.4-70.4 70.4-128 102.4-168.533 89.6-44.8-14.933-68.267-87.467-72.533-113.067-2.133-14.933-17.067-25.6-32-25.6h-6.4c-17.067 2.133-29.867 19.2-25.6 36.267 0 6.4 23.467 134.4 115.2 162.133 64 21.333 140.8-12.8 228.267-100.267 51.2-25.6 91.733-27.733 123.733-8.533 76.8 49.067 89.6 219.733 89.6 281.6 0 17.067 12.8 32 32 32 17.067 0 32-12.8 32-32 4.267-8.533 8.533-256-115.2-334.933z"  horiz-adv-x="1024" />

    
    <glyph glyph-name="home" unicode="&#58886;" d="M789.333-64h-554.667c-40.533 0-74.667 34.133-74.667 74.667v288h-74.667c-34.133 0-46.933 19.2-51.2 27.733-4.267 8.533-8.533 32 14.933 55.467l409.6 428.8c27.733 29.867 76.8 29.867 104.533 0l409.6-428.8c23.467-25.6 19.2-46.933 14.933-55.467-4.267-8.533-14.933-27.733-51.2-27.733h-74.667v-288c2.133-40.533-32-74.667-72.533-74.667zM117.333 362.667h106.667v-352c0-6.4 4.267-10.667 10.667-10.667h554.667c6.4 0 10.667 4.267 10.667 10.667v352h106.667l-388.267 405.333c-4.267 4.267-8.533 4.267-12.8 0l-388.267-405.333z"  horiz-adv-x="1024" />

    
    <glyph glyph-name="like-s" unicode="&#58887;" d="M753.067 823.467c-87.467 10.667-177.067-25.6-238.933-91.733-51.2 57.6-130.133 91.733-215.467 93.867-140.8 4.267-251.733-108.8-262.4-258.133-8.533-140.8 89.6-277.333 196.267-401.067 49.067-57.6 102.4-108.8 157.867-155.733l8.533-6.4c25.6-21.333 55.467-46.933 91.733-55.467 4.267-2.133 12.8-4.267 12.8-4.267l6.4-2.133 8.533 2.133 12.8 4.267c34.133 8.533 66.133 32 89.6 51.2l8.533 6.4c51.2 40.533 100.267 87.467 153.6 145.067 89.6 98.133 206.933 247.467 204.8 413.867-2.133 132.267-100.267 243.2-234.667 258.133z"  horiz-adv-x="1024" />

    
    <glyph glyph-name="user" unicode="&#58888;" d="M825.6 275.2c10.667 17.067 19.2 34.133 27.733 51.2 2.133 6.4 4.267 10.667 6.4 17.067 0 2.133 2.133 6.4 2.133 8.533 8.533 21.333 12.8 42.667 17.067 64 0 4.267 2.133 10.667 2.133 14.933s2.133 10.667 2.133 14.933c0 10.667 2.133 19.2 2.133 29.867v2.133c0 36.267-6.4 70.4-14.933 102.4 0 2.133-2.133 6.4-2.133 8.533 0 2.133-2.133 4.267-2.133 6.4-23.467 68.267-64 125.867-117.333 170.667-64 53.333-147.2 85.333-236.8 85.333s-172.8-32-236.8-85.333c-53.333-44.8-96-104.533-117.333-172.8 0-2.133-2.133-4.267-2.133-4.267 0-4.267-2.133-6.4-2.133-10.667-8.533-32-14.933-66.133-14.933-100.267v-2.133c0-10.667 0-23.467 2.133-34.133v-4.267c6.4-59.733 23.467-115.2 57.6-164.267-115.2-108.8-123.733-262.4-123.733-281.6-2.133-19.2 4.267-36.267 17.067-51.2 14.933-14.933 38.4-25.6 61.867-25.6h716.8c23.467 0 44.8 8.533 59.733 21.333 14.933 14.933 21.333 34.133 19.2 53.333 0 19.2-6.4 174.933-123.733 285.867zM512 168.533c-93.867 0-179.2 42.667-234.667 108.8l-10.667 12.8c-36.267 49.067-57.6 102.4-61.867 162.133v25.6c0 170.667 138.667 307.2 309.333 307.2 128 0 236.8-76.8 283.733-187.733 14.933-36.267 23.467-76.8 23.467-119.467 0-70.4-21.333-134.4-64-189.867l-10.667-14.933c-59.733-64-142.933-104.533-234.667-104.533zM885.333-12.8s0-2.133-2.133-4.267-6.4-4.267-12.8-4.267h-716.8c-8.533 0-12.8 2.133-14.933 4.267s-2.133 2.133-2.133 4.267v4.267s4.267 136.533 100.267 232.533c68.267-74.667 166.4-121.6 275.2-121.6s204.8 46.933 273.067 119.467c96-91.733 100.267-230.4 100.267-234.667z"  horiz-adv-x="1024" />

    
    <glyph glyph-name="like" unicode="&#58889;" d="M514.133-57.6h-8.533l-12.8 4.267c-36.267 8.533-66.133 34.133-91.733 55.467l-8.533 6.4c-55.467 44.8-108.8 98.133-157.867 155.733-108.8 125.867-206.933 260.267-196.267 401.067 10.667 149.333 121.6 262.4 262.4 258.133 85.333-2.133 166.4-36.267 215.467-93.867 61.867 66.133 151.467 102.4 238.933 91.733 134.4-14.933 232.533-125.867 234.667-260.267 2.133-166.4-115.2-315.733-204.8-413.867-51.2-57.6-102.4-104.533-153.6-145.067l-8.533-6.4c-23.467-19.2-55.467-42.667-89.6-51.2-4.267-2.133-12.8-4.267-12.8-4.267-2.133 2.133-4.267 2.133-6.4 2.133zM294.4 761.6c-104.533 0-185.6-83.2-192-198.4-8.533-119.467 83.2-241.067 181.333-356.267 46.933-55.467 98.133-104.533 149.333-147.2l8.533-8.533c19.2-17.067 44.8-38.4 66.133-42.667 2.133 0 2.133 0 4.267-2.133 2.133 0 4.267 0 4.267 2.133 21.333 4.267 44.8 23.467 66.133 40.533l8.533 6.4c49.067 38.4 96 83.2 145.067 136.533 81.067 89.6 189.867 226.133 187.733 369.067-2.133 102.4-76.8 187.733-177.067 198.4-78.933 8.533-157.867-29.867-204.8-98.133-6.4-8.533-14.933-14.933-27.733-14.933-10.667 0-21.333 6.4-25.6 14.933-36.267 59.733-108.8 96-189.867 98.133-2.133 2.133-4.267 2.133-4.267 2.133z"  horiz-adv-x="1024" />

    
    <glyph glyph-name="print" unicode="&#58890;" d="M938.667 704h-853.333c-23.467 0-42.667-19.2-42.667-42.667v-458.667c0-23.467 19.2-42.667 42.667-42.667h128v64h-106.667v416h810.667v-416h-106.667v-64h128c23.467 0 42.667 19.2 42.667 42.667v458.667c0 23.467-19.2 42.667-42.667 42.667zM746.667 277.333v-341.333h-469.333v341.333h469.333M768 341.333h-512c-23.467 0-42.667-19.2-42.667-42.667v-384c0-23.467 19.2-42.667 42.667-42.667h512c23.467 0 42.667 19.2 42.667 42.667v384c0 23.467-19.2 42.667-42.667 42.667zM458.667 501.333h-213.333c-12.8 0-21.333 8.533-21.333 21.333v21.333c0 12.8 8.533 21.333 21.333 21.333h213.333c12.8 0 21.333-8.533 21.333-21.333v-21.333c0-12.8-8.533-21.333-21.333-21.333zM746.667 832v-128h-469.333v128h469.333M768 896h-512c-23.467 0-42.667-19.2-42.667-42.667v-170.667c0-23.467 19.2-42.667 42.667-42.667h512c23.467 0 42.667 19.2 42.667 42.667v170.667c0 23.467-19.2 42.667-42.667 42.667z"  horiz-adv-x="1024" />

    
    <glyph glyph-name="message" unicode="&#58891;" d="M949.333 853.333h-857.6c-27.733 0-49.067-27.733-49.067-55.467v-686.933c0-29.867 21.333-46.933 49.067-46.933h100.267v-115.2c0-17.067 19.2-29.867 34.133-29.867 4.267 0 12.8 2.133 17.067 4.267l232.533 136.533c2.133 0 4.267 4.267 4.267 4.267h469.333c27.733 0 53.333 17.067 53.333 44.8v689.067c-0 27.733-25.6 55.467-53.333 55.467zM938.667 128h-458.667c-12.8 0-29.867-6.4-40.533-12.8l-183.467-106.667v40.533c0 40.533-23.467 76.8-64 76.8h-85.333v663.467h832v-661.333zM277.333 388.267c36.267 0 64 27.733 64 64s-27.733 64-64 64-64-27.733-64-64 27.733-64 64-64zM533.333 388.267c36.267 0 64 27.733 64 64s-27.733 64-64 64-64-27.733-64-64 27.733-64 64-64zM789.333 388.267c36.267 0 64 27.733 64 64s-27.733 64-64 64-64-27.733-64-64 27.733-64 64-64z"  horiz-adv-x="1024" />

    
    <glyph glyph-name="notice" unicode="&#58892;" d="M512-80.593c-256 0-464.593 208.593-464.593 464.593s208.593 464.593 464.593 464.593 464.593-208.593 464.593-464.593c0-94.815-28.444-185.837-81.541-263.585l45.511-92.919c17.067-32.237 9.481-54.993 1.896-66.37-5.689-9.481-18.963-22.756-47.407-22.756-9.481 0-18.963 1.896-28.444 3.793l-125.156 37.926c-70.163-39.822-147.911-60.681-229.452-60.681zM512 791.704c-225.659 0-407.704-182.044-407.704-407.704s182.044-407.704 407.704-407.704c73.956 0 147.911 20.859 210.489 58.785l11.378 5.689 149.807-45.511c3.793-1.896 5.689-1.896 9.481-1.896 0 1.896-1.896 5.689-3.793 7.585l-60.681 123.259 9.481 13.274c53.096 70.163 81.541 155.496 81.541 242.726 0 229.452-182.044 411.496-407.704 411.496zM512 90.074c-41.719 0-75.852 34.133-75.852 75.852s34.133 75.852 75.852 75.852 75.852-34.133 75.852-75.852-34.133-75.852-75.852-75.852zM512 184.889c-11.378 0-18.963-7.585-18.963-18.963s7.585-18.963 18.963-18.963 18.963 7.585 18.963 18.963-7.585 18.963-18.963 18.963zM512 668.444c-47.407 0-85.333-37.926-85.333-85.333v-227.556c0-47.407 37.926-85.333 85.333-85.333s85.333 37.926 85.333 85.333v227.556c0 47.407-37.926 85.333-85.333 85.333zM540.444 355.556c0-15.17-13.274-28.444-28.444-28.444s-28.444 13.274-28.444 28.444v227.556c0 15.17 13.274 28.444 28.444 28.444s28.444-13.274 28.444-28.444v-227.556z"  horiz-adv-x="1024" />

    
    <glyph glyph-name="hotel" unicode="&#58893;" d="M984.178 23.704h-56.889v436.148c0 20.859-17.067 37.926-37.926 37.926h-265.481v227.556c0 20.859-17.067 37.926-37.926 37.926h-455.111c-20.859 0-37.926-17.067-37.926-37.926v-701.63h-37.926c-15.17 0-28.444-13.274-28.444-28.444s13.274-28.444 28.444-28.444h929.185c15.17 0 28.444 13.274 28.444 28.444s-13.274 28.444-28.444 28.444zM566.993 23.704h-417.185v682.667h417.185v-682.667zM870.4 23.704h-246.519v417.185h246.519v-417.185zM244.622 535.704h208.593c15.17 0 28.444 13.274 28.444 28.444s-13.274 28.444-28.444 28.444h-208.593c-15.17 0-28.444-13.274-28.444-28.444s13.274-28.444 28.444-28.444zM244.622 384h113.778c15.17 0 28.444 13.274 28.444 28.444s-13.274 28.444-28.444 28.444h-113.778c-15.17 0-28.444-13.274-28.444-28.444s13.274-28.444 28.444-28.444zM244.622 232.296h113.778c15.17 0 28.444 13.274 28.444 28.444s-13.274 28.444-28.444 28.444h-113.778c-15.17 0-28.444-13.274-28.444-28.444s13.274-28.444 28.444-28.444zM699.733 289.185h94.815c15.17 0 28.444 13.274 28.444 28.444s-13.274 28.444-28.444 28.444h-94.815c-15.17 0-28.444-13.274-28.444-28.444s13.274-28.444 28.444-28.444zM699.733 156.444h56.889c15.17 0 28.444 13.274 28.444 28.444s-13.274 28.444-28.444 28.444h-56.889c-15.17 0-28.444-13.274-28.444-28.444s13.274-28.444 28.444-28.444z"  horiz-adv-x="1024" />

    
    <glyph glyph-name="iphoto" unicode="&#58894;" d="M183.941 365.037h644.741v56.889h-644.741v-56.889zM895.052 266.43c-15.17 0-28.444-13.274-28.444-28.444v-214.281h-216.178c-15.17 0-28.444-13.274-28.444-28.444s13.274-28.444 28.444-28.444h246.519c7.585 0 13.274 0 18.963 5.689 5.689 5.689 7.585 9.481 7.585 17.067v246.519c0 17.067-13.274 30.341-28.444 30.341zM117.57 512.948c15.17 0 28.444 13.274 28.444 28.444v221.867h221.867c15.17 0 28.444 13.274 28.444 28.444s-13.274 28.444-28.444 28.444h-246.519c-9.481 0-17.067-5.689-22.756-11.378-5.689-3.793-9.481-13.274-9.481-22.756v-246.519c0-15.17 11.378-26.548 28.444-26.548zM915.911 808.77c-5.689 5.689-11.378 11.378-18.963 11.378h-246.519c-15.17 0-28.444-13.274-28.444-28.444s13.274-28.444 28.444-28.444h214.281v-221.867c0-15.17 13.274-28.444 28.444-28.444s28.444 13.274 28.444 28.444v246.519c1.896 7.585 0 17.067-5.689 20.859zM365.985 23.704h-219.97v212.385c0 15.17-13.274 28.444-28.444 28.444s-28.444-13.274-28.444-28.444v-246.519c0-7.585 3.793-13.274 9.481-17.067 5.689-5.689 13.274-5.689 20.859-5.689h246.519c15.17 0 28.444 13.274 28.444 28.444s-11.378 28.444-28.444 28.444z"  horiz-adv-x="1024" />

    
    <glyph glyph-name="schedule" unicode="&#58895;" d="M711.111 658.963c15.17 0 28.444 13.274 28.444 28.444v113.778c0 15.17-13.274 28.444-28.444 28.444s-28.444-13.274-28.444-28.444v-113.778c0-15.17 13.274-28.444 28.444-28.444zM350.815 658.963c15.17 0 28.444 13.274 28.444 28.444v113.778c0 15.17-13.274 28.444-28.444 28.444s-28.444-13.274-28.444-28.444v-113.778c0-15.17 13.274-28.444 28.444-28.444zM246.519 137.481h208.593c15.17 0 28.444 13.274 28.444 28.444s-13.274 28.444-28.444 28.444h-208.593c-15.17 0-28.444-13.274-28.444-28.444s13.274-28.444 28.444-28.444zM246.519 270.222h417.185c15.17 0 28.444 13.274 28.444 28.444s-13.274 28.444-28.444 28.444h-417.185c-15.17 0-28.444-13.274-28.444-28.444s13.274-28.444 28.444-28.444zM872.296 782.222h-94.815v-132.741h-132.741v132.741h-227.556v-132.741h-132.741v132.741h-94.815c-53.096 0-94.815-41.719-94.815-94.815v-644.741c0-53.096 41.719-94.815 94.815-94.815h682.667c53.096 0 94.815 41.719 94.815 94.815v644.741c0 53.096-41.719 94.815-94.815 94.815zM910.222 42.667c0-20.859-17.067-37.926-37.926-37.926h-682.667c-20.859 0-37.926 17.067-37.926 37.926v398.222h758.519v-398.222zM910.222 497.778h-758.519v189.63c0 20.859 17.067 37.926 37.926 37.926h37.926v-94.815c0-20.859 17.067-37.926 37.926-37.926h170.667c20.859 0 37.926 17.067 37.926 37.926v94.815h113.778v-94.815c0-20.859 17.067-37.926 37.926-37.926h170.667c20.859 0 37.926 17.067 37.926 37.926v94.815h37.926c20.859 0 37.926-17.067 37.926-37.926v-189.63z"  horiz-adv-x="1024" />

    
    <glyph glyph-name="luggage" unicode="&#58896;" d="M883.674 706.37h-208.593v75.852c0 53.096-41.719 94.815-94.815 94.815h-151.704c-53.096 0-94.815-41.719-94.815-94.815v-75.852h-246.519c-22.756 0-56.889-34.133-56.889-75.852v-587.852c0-41.719 34.133-75.852 75.852-75.852h796.444c41.719 0 75.852 34.133 75.852 75.852v587.852c-1.896 41.719-34.133 75.852-94.815 75.852zM388.741 782.222c0 20.859 17.067 37.926 37.926 37.926h151.704c20.859 0 37.926-17.067 37.926-37.926v-75.852h-227.556v75.852zM919.704 42.667c0-11.378-7.585-18.963-18.963-18.963h-796.444c-11.378 0-18.963 7.585-18.963 18.963v341.333h322.37v-56.889c0-32.237 24.652-56.889 56.889-56.889h75.852c32.237 0 56.889 24.652 56.889 56.889v56.889h322.37v-341.333zM464.593 327.111v151.704h75.852v-151.704h-75.852zM919.704 440.889h-322.37v37.926c0 32.237-24.652 56.889-56.889 56.889h-75.852c-32.237 0-56.889-24.652-56.889-56.889v-37.926h-322.37v189.63c0 11.378 7.585 18.963 18.963 18.963h796.444c11.378 0 18.963-7.585 18.963-18.963v-189.63z"  horiz-adv-x="1024" />

    
    <glyph glyph-name="write" unicode="&#58897;" d="M625.778 694.993l-180.148 104.296c-18.963 9.481-41.719 3.793-51.2-13.274l-348.919-603.022c-11.378-18.963-13.274-49.304-5.689-68.267l37.926-102.4c7.585-20.859 30.341-32.237 51.2-28.444l108.089 18.963c20.859 3.793 45.511 20.859 56.889 39.822l347.022 603.022c9.481 17.067 3.793 39.822-15.17 49.304zM242.726 69.215c-1.896-3.793-13.274-11.378-17.067-11.378l-98.607-17.067-34.133 94.815c-1.896 3.793 0 17.067 1.896 20.859l339.437 584.059 147.911-85.333-339.437-585.956zM692.148 497.778h246.519c15.17 0 28.444 13.274 28.444 28.444s-13.274 28.444-28.444 28.444h-246.519c-15.17 0-28.444-13.274-28.444-28.444s13.274-28.444 28.444-28.444zM938.667 346.074h-360.296c-15.17 0-28.444-13.274-28.444-28.444s13.274-28.444 28.444-28.444h360.296c15.17 0 28.444 13.274 28.444 28.444s-13.274 28.444-28.444 28.444zM938.667 137.481h-474.074c-15.17 0-28.444-13.274-28.444-28.444s13.274-28.444 28.444-28.444h474.074c15.17 0 28.444 13.274 28.444 28.444s-13.274 28.444-28.444 28.444z"  horiz-adv-x="1024" />

    
    <glyph glyph-name="flight" unicode="&#58898;" d="M396.326-71.111c-3.793 0-7.585 0-9.481 1.896-15.17 3.793-28.444 13.274-34.133 28.444l-81.541 189.63-183.941 73.956c-15.17 5.689-24.652 18.963-28.444 34.133s1.896 32.237 13.274 43.615l56.889 56.889c9.481 9.481 20.859 13.274 34.133 13.274h3.793l132.741-11.378 98.607 100.504-282.548 149.807c-13.274 5.689-22.756 18.963-24.652 34.133-1.896 15.17 1.896 30.341 13.274 41.719l75.852 75.852c11.378 11.378 26.548 15.17 41.719 13.274l405.807-91.022 121.363 121.363c22.756 22.756 53.096 34.133 85.333 34.133 34.133 0 66.37-13.274 89.126-36.030l5.689-5.689c22.756-22.756 36.030-54.993 37.926-87.23 0-34.133-11.378-64.474-36.030-87.23l-119.467-119.467 94.815-402.015c3.793-17.067-1.896-32.237-13.274-43.615l-77.748-79.644c-11.378-11.378-24.652-15.17-41.719-13.274-15.17 1.896-26.548 11.378-34.133 24.652l-153.6 274.963-94.815-94.815 13.274-125.156c1.896-13.274-3.793-28.444-13.274-37.926l-62.578-62.578c-7.585-11.378-18.963-15.17-32.237-15.17zM121.363 270.222l191.526-77.748 85.333-201.007 49.304 49.304-15.17 147.911 166.874 166.874 183.941-329.956 64.474 64.474-96.711 428.563 142.222 142.222c13.274 13.274 18.963 28.444 18.963 47.407s-7.585 37.926-20.859 51.2l-5.689 5.689c-13.274 13.274-30.341 18.963-49.304 18.963-17.067 0-34.133-5.689-45.511-17.067l-144.119-144.119-430.459 96.711-62.578-62.578 339.437-180.148-172.563-172.563-153.6 13.274-45.511-47.407z"  horiz-adv-x="1024" />

    
    <glyph glyph-name="message-s" unicode="&#58901;" d="M898.844 801.185h-760.415c-24.652 0-49.304-28.444-49.304-53.096v-610.607c0-24.652 24.652-37.926 49.304-37.926h83.437l1.896-102.4c0-15.17 18.963-26.548 32.237-26.548 3.793 0 11.378 0 15.17 3.793l206.696 121.363c1.896 0 3.793 3.793 5.689 3.793h417.185c24.652 0 41.719 13.274 41.719 37.926v610.607c0 24.652-18.963 53.096-43.615 53.096zM303.407 384c-32.237 0-56.889 24.652-56.889 56.889s24.652 56.889 56.889 56.889 56.889-24.652 56.889-56.889-24.652-56.889-56.889-56.889zM530.963 384c-32.237 0-56.889 24.652-56.889 56.889s24.652 56.889 56.889 56.889 56.889-24.652 56.889-56.889-24.652-56.889-56.889-56.889zM758.519 384c-32.237 0-56.889 24.652-56.889 56.889s24.652 56.889 56.889 56.889 56.889-24.652 56.889-56.889-24.652-56.889-56.889-56.889z"  horiz-adv-x="1024" />

    
    <glyph glyph-name="register" unicode="&#58900;" d="M962.133 733.867l-106.667 106.667c-21.333 21.333-55.467 21.333-74.667 0l-416-416c-6.4-6.4-8.533-12.8-8.533-21.333l-6.4-121.6c-2.133-29.867 23.467-55.467 53.333-53.333l121.6 6.4c8.533 0 14.933 4.267 21.333 8.533l416 416c19.2 19.2 19.2 53.333 0 74.667zM507.733 296.533l-96-4.267 4.267 96 401.067 398.933 89.6-89.6-398.933-401.067zM896 384c-12.8 0-21.333-8.533-21.333-21.333v-341.333c0-6.4 6.4-21.333 0-21.333h-725.333c-12.8 0-21.333 10.667-21.333 21.333v725.333c0 6.4 14.933 0 21.333 0h341.333c12.8 0 21.333 8.533 21.333 21.333v21.333c0 12.8-8.533 21.333-21.333 21.333h-362.667c-36.267 0-64-27.733-64-64v-725.333c0-46.933 38.4-85.333 85.333-85.333h704c46.933 0 85.333 38.4 85.333 85.333v341.333c0 12.8-8.533 21.333-21.333 21.333h-21.333z"  horiz-adv-x="1024" />

    
    <glyph glyph-name="user-s" unicode="&#58882;" d="M825.6 275.2c10.666667 17.066667 19.2 34.133333 27.733333 51.2 2.133333 6.4 4.266667 10.666667 6.4 17.066667 0 2.133333 2.133333 6.4 2.133334 8.533333 8.533333 21.333333 12.8 42.666667 17.066666 64 0 4.266667 2.133333 10.666667 2.133334 14.933333s2.133333 10.666667 2.133333 14.933334c0 10.666667 2.133333 19.2 2.133333 29.866666v2.133334c0 36.266667-6.4 70.4-14.933333 102.4 0 2.133333-2.133333 6.4-2.133333 8.533333 0 2.133333-2.133333 4.266667-2.133334 6.4-23.466667 68.266667-64 125.866667-117.333333 170.666667-64 53.333333-147.2 85.333333-236.8 85.333333s-172.8-32-236.8-85.333333c-53.333333-44.8-96-104.533333-117.333333-172.8 0-2.133333-2.133333-4.266667-2.133334-4.266667 0-4.266667-2.133333-6.4-2.133333-10.666667-8.533333-32-14.933333-66.133333-14.933333-100.266666v-2.133334c0-10.666667 0-23.466667 2.133333-34.133333v-4.266667c6.4-59.733333 23.466667-115.2 57.6-164.266666-115.2-108.8-123.733333-262.4-123.733333-281.6-2.133333-19.2 4.266667-36.266667 17.066666-51.2 14.933333-14.933333 38.4-25.6 61.866667-25.6h716.8c23.466667 0 44.8 8.533333 59.733333 21.333333 14.933333 14.933333 21.333333 34.133333 19.2 53.333333 0 19.2-6.4 174.933333-123.733333 285.866667z"  horiz-adv-x="1024" />

    
    <glyph glyph-name="home-s" unicode="&#58884;" d="M974.933333 381.866667l-409.6 428.8c-27.733333 29.866667-76.8 29.866667-104.533333 0l-409.6-428.8c-23.466667-23.466667-19.2-46.933333-14.933333-55.466667 4.266667-8.533333 17.066667-27.733333 51.2-27.733333h74.666666v-288c0-40.533333 34.133333-74.666667 74.666667-74.666667h554.666667c40.533333 0 74.666667 34.133333 72.533333 74.666667V298.666667h74.666667c36.266667 0 46.933333 19.2 51.2 27.733333 2.133333 8.533333 8.533333 29.866667-14.933334 55.466667z"  horiz-adv-x="1024" />

    
    <glyph glyph-name="venue" unicode="&#58899;" d="M879.881 573.63h-64.474l1.896 1.896-329.956 286.341c-7.585 5.689-18.963 5.689-24.652 0l-329.956-286.341 1.896-1.896h-51.2c-11.378 0-18.963-7.585-18.963-18.963v-568.889c0-11.378 7.585-18.963 18.963-18.963h796.444c11.378 0 18.963 7.585 18.963 18.963v568.889c0 11.378-9.481 18.963-18.963 18.963zM460.8 787.911c7.585 5.689 18.963 5.689 24.652 0l244.622-214.281h-512l242.726 214.281zM841.956 23.704h-720.593v493.037h720.593v-493.037zM216.178 213.333h189.63c11.378 0 18.963 7.585 18.963 18.963v189.63c0 11.378-7.585 18.963-18.963 18.963h-189.63c-11.378 0-18.963-7.585-18.963-18.963v-189.63c0-11.378 7.585-18.963 18.963-18.963zM254.104 384h113.778v-113.778h-113.778v113.778z"  horiz-adv-x="1024" />

    
    <glyph glyph-name="register-s" unicode="&#58902;" d="M938.667 411.733v-384c0-32-25.6-59.733-59.733-59.733h-736c-32 0-59.733 25.6-59.733 59.733v736c0 32 25.6 59.733 59.733 59.733h388.267l85.333-85.333-266.667-247.467c-17.067-17.067-32-49.067-32-72.533v-170.667c0-23.467 19.2-42.667 42.667-42.667h128c23.467 0 57.6 12.8 74.667 29.867l288 268.8 87.467-91.733zM398.933 270.933c-12.8 0-21.333 8.533-21.333 21.333l6.4 121.6 416 416c8.533 8.533 21.333 8.533 29.867 0l106.667-106.667c8.533-8.533 8.533-21.333 0-29.867l-416-416-121.6-6.4z"  horiz-adv-x="1024" />

    
    <glyph glyph-name="committee" unicode="&#58903;" d="M434.251852-95.762963c-151.703704 0-407.703704 37.925926-407.703704 180.148148 0 134.637037 142.222222 168.77037 210.488889 183.940741 1.896296 0 3.792593 0 3.792593 1.896296 0 0 0 1.896296-1.896297 1.896297-28.444444 43.614815-81.540741 125.155556-81.54074 229.451851 0 144.118519 66.37037 312.888889 256 312.888889 163.081481 0 256-113.777778 256-312.888889C669.392593 384 616.296296 308.148148 587.851852 270.222222h3.792592c68.266667-17.066667 210.488889-49.303704 210.488889-183.940741 1.896296-134.637037-189.62963-182.044444-367.881481-182.044444z m-18.962963 853.333333c-183.940741 0-199.111111-195.318519-199.111111-256 0-87.22963 45.511111-157.392593 72.059259-199.111111 15.17037-22.755556 22.755556-34.133333 22.755556-47.407407 0-26.548148-24.651852-34.133333-60.681482-41.718519-81.540741-18.962963-166.874074-45.511111-166.874074-128.948148 0-77.748148 178.251852-123.259259 350.814815-123.259259 149.807407 0 312.888889 37.925926 312.888889 123.259259 0 83.437037-87.22963 109.985185-166.874074 128.948148-34.133333 7.585185-60.681481 15.17037-60.681482 41.718519 0 15.17037 7.585185 24.651852 20.859259 43.614815 26.548148 34.133333 73.955556 100.503704 73.955556 202.903703 0 117.57037-34.133333 256-199.111111 256zM974.696296 131.792593c-15.17037 0-28.444444 13.274074-28.444444 28.444444 0 58.785185-89.125926 87.22963-155.496296 108.088889-54.992593 17.066667-91.022222 28.444444-91.022223 62.577778 0 5.688889 0 9.481481-1.896296 15.17037-1.896296 15.17037-3.792593 32.237037 5.688889 47.407407 96.711111 140.325926 128.948148 250.311111 94.814815 318.577778-39.822222 77.748148-155.496296 83.437037-157.392593 83.437037-15.17037 0-28.444444 13.274074-28.444444 28.444445s13.274074 28.444444 28.444444 28.444444c1.896296 0 149.807407-5.688889 206.696296-111.881481 47.407407-89.125926 15.17037-214.281481-94.814814-375.466667 0-3.792593 0-7.585185 1.896296-11.377778 0-3.792593 1.896296-7.585185 1.896296-13.274074 11.377778-5.688889 34.133333-13.274074 53.096297-18.962963 77.748148-24.651852 195.318519-60.681481 195.318518-161.185185-1.896296-15.17037-15.17037-28.444444-30.340741-28.444444z"  horiz-adv-x="1024" />

    
    <glyph glyph-name="meeting" unicode="&#58904;" d="M910.222222 753.777778H113.777778c-15.17037 0-28.444444 13.274074-28.444445 28.444444S98.607407 810.666667 113.777778 810.666667h796.444444c15.17037 0 28.444444-13.274074 28.444445-28.444445s-13.274074-28.444444-28.444445-28.444444zM663.703704 545.185185H360.296296c-15.17037 0-28.444444 13.274074-28.444444 28.444445s13.274074 28.444444 28.444444 28.444444h303.407408c15.17037 0 28.444444-13.274074 28.444444-28.444444s-13.274074-28.444444-28.444444-28.444445zM663.703704 355.555556H360.296296c-15.17037 0-28.444444 13.274074-28.444444 28.444444s13.274074 28.444444 28.444444 28.444444h303.407408c15.17037 0 28.444444-13.274074 28.444444-28.444444s-13.274074-28.444444-28.444444-28.444444zM170.666667 146.962963c-15.17037 0-28.444444 13.274074-28.444445 28.444444V782.222222c0 15.17037 13.274074 28.444444 28.444445 28.444445s28.444444-13.274074 28.444444-28.444445v-606.814815c0-15.17037-13.274074-28.444444-28.444444-28.444444zM512-80.592593c-15.17037 0-28.444444 13.274074-28.444444 28.444445V146.962963c0 15.17037 13.274074 28.444444 28.444444 28.444444s28.444444-13.274074 28.444444-28.444444V-52.148148c0-15.17037-13.274074-28.444444-28.444444-28.444445zM834.37037 146.962963c-15.17037 0-28.444444 13.274074-28.444444 28.444444V782.222222c0 15.17037 13.274074 28.444444 28.444444 28.444445s28.444444-13.274074 28.444445-28.444445v-606.814815c0-15.17037-13.274074-28.444444-28.444445-28.444444zM910.222222 128H113.777778c-15.17037 0-28.444444 13.274074-28.444445 28.444444s13.274074 28.444444 28.444445 28.444445h796.444444c15.17037 0 28.444444-13.274074 28.444445-28.444445s-13.274074-28.444444-28.444445-28.444444z"  horiz-adv-x="1024" />

    
    <glyph glyph-name="agency" unicode="&#58905;" d="M515.185778 828.302222a9.481481 9.481481 0 0 1-9.481482 0L128.056889 610.285037a9.481481 9.481481 0 0 1-4.740741-8.210963L123.259259 165.925926a9.481481 9.481481 0 0 1 4.740741-8.210963L505.66637-60.302222a9.481481 9.481481 0 0 1 9.481482 0l377.685333 218.074074a9.481481 9.481481 0 0 1 4.740741 8.192V602.074074a9.481481 9.481481 0 0 1-4.740741 8.210963L515.185778 828.302222z m28.444444 49.284741l377.647408-218.074074a66.37037 66.37037 0 0 0 33.185185-57.457778V165.925926a66.37037 66.37037 0 0 0-33.185185-57.457778l-377.685334-218.074074a66.37037 66.37037 0 0 0-66.37037 0L99.555556 108.468148a66.37037 66.37037 0 0 0-33.185186 57.495704l0.056889 436.091259a66.37037 66.37037 0 0 0 33.185185 57.457778L477.259852 877.605926a66.37037 66.37037 0 0 0 66.37037 0zM497.000296 275.512889a32.237037 32.237037 0 0 0 29.999408 0l103.272296-54.290963-19.721481 114.991407a32.237037 32.237037 0 0 0 9.272888 28.520297l83.531852 81.445926-115.446518 16.782222a32.237037 32.237037 0 0 0-24.272593 17.635555L512 585.197037l-51.636148-104.618667a32.237037 32.237037 0 0 0-24.272593-17.635555l-115.446518-16.782222 83.531852-81.445926c7.604148-7.395556 11.07437-18.071704 9.291851-28.520297l-19.721481-114.991407 103.253333 54.290963zM512 219.117037l-136.00237-71.49037a32.237037 32.237037 0 0 0-46.78163 33.981629l25.979259 151.438223-110.042074 107.254518a32.237037 32.237037 0 0 0 17.882074 54.992593l152.045037 22.091851 68.020148 137.784889a32.237037 32.237037 0 0 0 57.799112 0l68.020148-137.784889 152.045037-22.091851a32.237037 32.237037 0 0 0 17.882074-54.992593l-110.042074-107.254518 25.979259-151.438223a32.237037 32.237037 0 0 0-46.78163-33.981629L512 219.117037z"  horiz-adv-x="1024" />

    
    <glyph glyph-name="brand" unicode="&#58906;" d="M151.703704 744.296296v-720.592592h720.592592V744.296296H151.703704z m-56.888889 18.868148C94.814815 784.156444 111.862519 801.185185 132.835556 801.185185h758.328888C912.156444 801.185185 929.185185 784.137481 929.185185 763.164444v-758.328888A38.039704 38.039704 0 0 0 891.164444-33.185185H132.835556A38.039704 38.039704 0 0 0 94.814815 4.835556V763.164444zM227.555556 213.333333l303.407407 0 0-56.888889-303.407407 0 0 56.888889ZM398.222222 478.814815l303.407408 0 0-56.888889-303.407408 0 0 56.888889ZM265.481481 630.518519l303.407408 0 0-56.888889-303.407408 0 0 56.888889Z"  horiz-adv-x="1024" />

    
    <glyph glyph-name="yiqiandao" unicode="&#58907;" d="M512-128c-282.76736 0-512 229.23264-512 512S229.23264 896 512 896s512-229.23264 512-512-229.23264-512-512-512z m0 27.306667c267.687253 0 484.693333 217.00608 484.693333 484.693333S779.687253 868.693333 512 868.693333 27.306667 651.687253 27.306667 384s217.00608-484.693333 484.693333-484.693333zM512-90.453333c-262.034773 0-474.453333 212.41856-474.453333 474.453333S249.965227 858.453333 512 858.453333s474.453333-212.41856 474.453333-474.453333-212.41856-474.453333-474.453333-474.453333z m0 6.826666c258.266453 0 467.626667 209.360213 467.626667 467.626667S770.266453 851.626667 512 851.626667 44.373333 642.266453 44.373333 384s209.360213-467.626667 467.626667-467.626667zM756.736 626.920107c-94.0032 94.590293-235.1104 127.453867-362.646187 81.032533-127.317333-46.332587-214.213973-161.8944-225.662293-294.52288l6.806187-0.587093c11.216213 130.00704 96.392533 243.275093 221.190826 288.699733 125.00992 45.499733 263.325013 13.284693 355.47136-79.435093l4.846934 4.8128zM268.322133 140.014933c94.037333-93.7984 234.564267-126.211413 361.59488-79.9744 126.64832 46.093653 213.34016 160.699733 225.4848 292.5568l-6.79936 0.628054c-11.905707-129.256107-96.877227-241.595733-221.02016-286.774614-124.5184-45.32224-262.260053-13.550933-354.440533 78.39744l-4.819627-4.83328zM279.722667 143.189333c91.327147-87.9616 225.396053-117.671253 346.68544-73.5232 121.81504 44.3392 205.59872 154.023253 218.48064 280.71936l-13.585067 1.385814c-12.356267-121.541973-92.71296-226.747733-209.565013-269.277867-116.34688-42.345813-244.9408-13.851307-332.547414 70.526293l-9.468586-9.8304z m464.554666 481.621334C652.950187 712.772267 518.88128 742.48192 397.591893 698.333867c-121.698987-44.291413-205.441707-153.8048-218.446506-280.3712l13.585066-1.39264c12.47232 121.40544 92.79488 226.440533 209.53088 268.936533 116.34688 42.345813 244.9408 13.851307 332.547414-70.526293l9.468586 9.8304zM130.205013 495.616l7.59808-21.68832-19.633493 11.946667-18.281813-13.933227 5.290666 22.370987-18.90304 13.079893 22.910294 1.877333 6.601386 22.016 8.86784-21.203626 22.97856 0.525653zM733.83936 715.32544l-22.985387 0.273067 17.94048 14.370133-6.84032 21.947733 19.21024-12.629333 18.75968 13.29152-6.075733-22.173013 18.432-13.728427-22.95808-1.078613-7.365973-21.777067zM266.274133 43.874987l-22.97856 0.273066 17.94048 14.37696-6.84032 21.940907 19.21024-12.622507 18.752854 13.284694-6.068907-22.166187 18.432-13.735253-22.95808-1.078614-7.365973-21.777066zM919.975253 281.8048l7.604907-21.695147-19.64032 11.946667-18.281813-13.9264 5.290666 22.36416-18.896213 13.079893 22.903467 1.877334 6.601386 22.022826 8.86784-21.210453 22.97856 0.525653zM433.4592 599.784107l-20.855467-29.04064-2.300586 35.682986-34.065067 10.861227 33.225387 13.216427-0.197974 35.751253 22.8352-27.511467 33.942187 11.236694-19.114667-30.221654 21.17632-28.808533zM343.811413 558.803627l-6.47168-23.026347-9.60512 21.899947-23.893333-0.96256 17.85856 15.906133-8.301227 22.418773 20.64384-12.06272 18.75968 14.813867-5.092693-23.354027 19.892907-13.264213zM528.479573 626.018987l-19.749546-13.482667 6.71744 22.951253-18.92352 14.62272 23.90016 0.703147 8.055466 22.514347 8.055467-22.514347 23.906987-0.703147-18.92352-14.62272 6.71744-22.951253zM611.580587 621.615787l-17.360214-4.430507 10.60864 14.445227-9.577813 15.141546 17.012053-5.625173 11.44832 13.789867-0.1024-17.926827 16.657067-6.621867-17.073493-5.440853-1.160534-17.885867zM289.396053 504.354133l1.344854-17.87904-12.376747 12.96384-16.581973-6.806186 8.4992 15.776426-11.59168 13.666987 17.626453-3.208533 9.4208 15.250773 2.389333-17.762987 17.414827-4.232533zM606.242133 125.078187l-20.862293-29.04064-2.300587 35.682986-34.065066 10.861227 33.225386 13.216427-0.191146 35.751253 22.828373-27.511467 33.949013 11.229867-19.114666-30.214827 21.17632-28.808533zM697.36448 186.210987l-6.47168-23.01952-9.60512 21.899946-23.893333-0.96256 17.85856 15.906134-8.301227 22.418773 20.64384-12.069547 18.766507 14.82752-5.09952-23.360853 19.892906-13.264213zM497.138347 113.33632l-19.749547-13.47584 6.71744 22.951253-18.92352 14.615894 23.893333 0.703146 8.062294 22.514347 8.055466-22.514347 23.90016-0.703146-18.916693-14.615894 6.710613-22.951253zM411.088213 134.5536l-17.360213-4.437333 10.60864 14.445226-9.577813 15.148374 17.012053-5.632 11.44832 13.789866-0.095573-17.92 16.65024-6.621866-17.073494-5.44768-1.160533-17.885867zM756.053333 260.109653l1.35168-17.872213-12.376746 12.957013-16.581974-6.79936 8.4992 15.7696-11.59168 13.673814 17.63328-3.208534 9.413974 15.250774 2.389333-17.762987 17.421653-4.23936zM126.539093 596.1728c2.048 1.08544 4.307627 1.181013 6.772054 0.279893 2.307413-0.83968 4.000427-2.41664 5.07904-4.724053 0.9216-2.2528 0.96256-4.532907 0.12288-6.847147-0.83968-2.307413-2.33472-4.027733-4.491947-5.16096-2.205013-1.024-4.5056-1.10592-6.894933-0.238933-2.4576 0.894293-4.123307 2.41664-4.99712 4.56704-0.98304 2.102613-1.024 4.38272-0.129707 6.847147 0.928427 2.53952 2.43712 4.3008 4.539733 5.277013z m17.134934-20.097707l4.457813 12.240214 59.6992-21.72928-4.457813-12.240214-59.6992 21.72928zM164.84352 671.51872l20.534613 24.4736c9.058987 10.79296 18.998613 16.459093 29.832534 16.9984 10.069333 0.539307 20.43904-3.672747 31.102293-12.629333 10.48576-8.792747 16.40448-18.363733 17.77664-28.706134 1.283413-10.704213-2.594133-21.449387-11.65312-32.242346l-20.384427-24.28928-67.208533 56.395093z m17.36704 2.914987l49.698133-41.704107 10.192214 12.14464c7.161173 8.533333 10.36288 16.4864 9.598293 23.866027-0.8192 7.31136-5.4272 14.49984-13.837653 21.551786-8.533333 7.168-16.411307 10.513067-23.640747 10.05568-7.33184-0.580267-14.554453-5.113173-21.66784-13.585066l-10.3424-12.32896zM277.1968 767.112533l54.592853 31.525547 5.71392-9.898667-42.994346-24.82176 12.77952-22.132053 40.441173 23.3472 5.71392-9.898667-40.441173-23.3472 13.94688-24.159573 44.803413 25.873067 5.71392-9.898667-56.40192-32.5632zM407.770453 807.922347l13.912747 2.4576 23.947947-43.8272 7.51616 49.370453 13.919573 2.4576-12.20608-66.6624-12.827307-2.266453zM584.410453 790.09792l-6.806186-38.6048-12.827307 2.259627 6.61504 37.512533c1.877333 10.6496-2.061653 16.83456-11.823787 18.55488a13.18912 13.18912 0 0 1-10.24-2.184533c-3.515733-2.4576-5.952853-6.144-7.318186-11.0592l-6.63552-37.635414-12.834134 2.259627 11.031894 62.5664 12.834133-2.266453-1.365333-7.74144c2.874027 2.648747 6.075733 4.5056 9.58464 5.543253 3.269973 1.092267 6.92224 1.276587 10.9568 0.566613 15.5648-2.74432 21.845333-12.670293 18.827946-29.771093zM689.937067 789.149013l-10.26048-17.769813 12.561066-7.24992-5.413546-9.366187-12.561067 7.24992-18.432-31.921493c-0.8192-1.419947-1.1264-2.70336-0.94208-3.857067 0.300373-1.119573 1.092267-2.048 2.368853-2.78528l7.236267-4.17792-5.40672-9.35936-9.045333 5.2224c-4.758187 2.74432-7.482027 5.973333-8.17152 9.680214-0.750933 3.46112 0.14336 7.386453 2.68288 11.789653l18.432 31.921493-10.212694 5.89824 5.40672 9.366187 10.212694-5.89824 7.55712 13.08672 13.98784-1.829547zM832.197973 210.04288l19.278507-7.017813 4.962987 13.626026 10.15808-3.700053-4.95616-13.626027 34.638506-12.608853c1.542827-0.559787 2.860373-0.648533 3.959467-0.26624 1.051307 0.49152 1.829547 1.4336 2.33472 2.819413l2.853547 7.850667 10.164906-3.700053-3.577173-9.816747c-1.877333-5.154133-4.580693-8.3968-8.116907-9.728-3.2768-1.338027-7.304533-1.133227-12.069546 0.600747l-34.645334 12.608853-4.027733-11.086507-10.171733 3.700054 4.041386 11.086506-14.199466 5.167787-0.628054 14.09024zM818.50368 127.71328l30.02368-25.1904-8.369493-9.980587-29.184 24.480427c-8.280747 6.956373-15.60576 6.63552-21.981867-0.955733-2.471253-2.955947-3.549867-6.280533-3.222187-9.966934 0.36864-4.273493 2.341547-8.226133 5.91872-11.871573l29.272747-24.562347-8.369493-9.980586-48.667307 40.83712 8.37632 9.980586 6.02112-5.051733a24.24832 24.24832 0 0 0-0.006827 11.072853c0.689493 3.372373 2.3552 6.628693 4.983467 9.762134 10.171733 12.117333 21.899947 12.588373 35.20512 1.4336zM674.153813 43.772587l12.240214 7.0656 37.485226-32.986454-9.816746 48.960854 12.240213 7.0656 11.332267-66.812587-11.28448-6.51264zM563.15904 25.98912l62.081707 10.943147 1.979733-11.250347-48.88576-8.62208 4.437333-25.16992 45.984427 8.11008 1.979733-11.257173-45.9776-8.11008 4.846934-27.470507 50.940586 8.983893 1.979734-11.250346-64.129707-11.311787zM445.494613 28.69248l31.470934-5.543253c13.871787-2.450773 23.7568-8.226133 29.627733-17.332907 5.502293-8.451413 7.038293-19.53792 4.621653-33.252693-2.37568-13.47584-7.70048-23.38816-15.9744-29.750614-8.628907-6.464853-19.879253-8.471893-33.757866-6.027946l-31.218347 5.50912 15.230293 86.398293z m11.209387-13.57824l-11.264-63.8976 15.60576-2.751147c10.97728-1.931947 19.462827-0.723627 25.470293 3.618134 5.925547 4.369067 9.844053 11.946667 11.748694 22.760106 1.938773 10.970453 0.894293 19.47648-3.11296 25.504427-4.171093 6.06208-11.700907 10.048853-22.596267 11.973973l-15.85152 2.792107zM400.561493 31.55968c0.709973-2.21184 0.4096-4.450987-0.90112-6.71744a8.738133 8.738133 0 0 0-5.5296-4.184747 9.181867 9.181867 0 0 0-6.765226 1.06496 9.181867 9.181867 0 0 0-4.307627 5.3248 8.676693 8.676693 0 0 0 0.955733 6.826667c1.317547 2.266453 3.106133 3.64544 5.372587 4.13696 2.239147 0.600747 4.491947 0.24576 6.7584-1.06496 2.341547-1.35168 3.816107-3.147093 4.416853-5.393067z m-22.77376-13.387093l11.28448-6.51264-31.76448-55.022934-11.28448 6.519467 31.76448 55.016107zM982.084267 409.8048l4.66944-12.834133-846.779734-308.20352-4.662613 12.834133 846.779733 308.196693zM41.915733 358.1952l-4.66944 12.834133 846.779734 308.20352 4.662613-12.834133L41.915733 358.202027zM322.368853 311.999147l-118.74304-43.2128 19.33312-53.118294c2.614613-7.18848 7.45472-9.489067 14.506667-6.92224l96.610987 35.157334c3.33824 1.215147 5.932373 3.467947 7.7824 6.7584 1.92512 3.8912-0.28672 16.165547-6.642347 36.809386l20.002133 0.744107c6.47168-24.958293 8.553813-40.475307 6.260054-46.544213-3.072-5.911893-8.3968-10.46528-15.95392-13.653334l-106.810027-38.87104c-15.906133-5.789013-26.897067-0.341333-32.9728 16.329387l-36.488533 100.27008 18.47296 6.724267 9.530026-26.17344 100.263254 36.49536-16.67072 45.806933-127.5904-46.44864-6.376107 17.517227 146.070187 53.159253 29.416106-80.827733z m260.52608 65.836373c0.750933-16.431787-0.02048-31.675733-2.31424-45.738667l38.106454 13.871787 6.16448-16.930133-163.580587-59.542187-6.16448 16.930133 105.847467 38.529707c2.321067 14.35648 3.024213 31.39584 2.102613 51.111253l19.838293 1.774934z m-106.584746-35.300693c8.861013-7.96672 18.008747-17.933653 27.4432-29.9008l-15.005014-10.253654c-8.506027 10.990933-17.578667 20.548267-27.21792 28.672l14.779734 11.482454z m43.055786 20.02944c7.973547-8.72448 16.411307-19.74272 25.326934-33.061547l-14.882134-10.001067a268.506453 268.506453 0 0 1-25.41568 31.505067l14.97088 11.557547z m-56.19712-1.276587a816.360107 816.360107 0 0 0-24.73984-21.865813l-14.66368 12.752213c28.965547 22.603093 51.58912 45.8752 67.87072 69.81632l11.543894 4.205227c30.33088-8.287573 62.6688-11.700907 97.006933-10.24l-3.106133-19.00544a315.1872 315.1872 0 0 0-32.80896 0.914773l4.901546-13.469013-101.034666-36.775254-4.969814 13.666987z m94.80192 37.123413c-20.48 1.979733-38.87104 5.604693-55.17312 10.861227-8.895147-14.27456-20.718933-28.89728-35.47136-43.854507l90.64448 32.99328zM436.237653 419.703467c-1.501867-11.44832-3.781973-21.940907-6.847146-31.484587l-19.428694 4.266667c6.485333 18.92352 9.120427 37.819733 7.918934 56.70912l19.101013 2.594133c0.129707-3.147093 0.232107-7.611733 0.300373-13.400747l47.9232 17.442134 5.87776-16.165547-24.050346-8.758613c4.348587-4.369067 8.492373-8.963413 12.424533-13.78304l-14.37696-11.987627a256.86016 256.86016 0 0 1-16.13824 19.182933l-12.6976-4.614826z m80.636587 29.34784a156.289707 156.289707 0 0 0-4.020907-21.2992l-18.96448 4.212053c4.48512 16.022187 6.089387 31.566507 4.8128 46.65344l18.725547 2.4576c0.252587-3.106133 0.416427-7.550293 0.49152-13.339307l54.080853 19.68128 5.87776-16.165546-27.129173-9.87136a173.192533 173.192533 0 0 0 15.291733-14.486187l-14.431573-12.445013a215.6544 215.6544 0 0 1-19.524267 20.138666l-15.209813-5.536426z m291.054933-39.000747a1290.19904 1290.19904 0 0 0-90.48064-50.804053l-10.60864 15.9744a1221.290667 1221.290667 0 0 1 41.847467 21.551786l-11.557547 31.750827-35.601066-12.957013-6.376107 17.517226 35.601067 12.957014-7.420587 20.39808 18.47296 6.724266 7.427413-20.39808 32.52224 11.83744 6.376107-17.5104-32.529067-11.83744 10.4448-28.672c8.751787 5.072213 20.52096 12.260693 35.293867 21.558614l6.587733-18.090667z m-153.053866 116.906667l96.802133 35.232426 6.30784-17.319253-48.305493-17.578667c-1.938773-19.012267-4.737707-34.48832-8.383147-46.421333 13.858133 6.642347 28.187307 14.178987 42.98752 22.616747-10.144427 7.49568-16.267947 11.946667-18.377387 13.359786l10.752 14.158507c19.442347-12.683947 34.542933-23.825067 45.294934-33.42336l-11.352747-16.110933-13.141333 11.557546c-22.739627-13.366613-47.650133-26.569387-74.717867-39.621973l-9.99424 14.88896c3.072 1.55648 5.229227 2.996907 6.485333 4.32128 4.293973 7.3728 7.898453 23.217493 10.820267 47.527253l-28.869973-10.50624-6.301014 17.319254z m179.862186-125.883734l-10.48576 16.226987a457.373013 457.373013 0 0 1 26.5216 8.567467c4.87424 1.774933 6.403413 5.16096 4.580694 10.164906l-54.981974 151.074134 18.47296 6.724266 56.661334-155.695786c4.77184-13.08672 0.669013-21.981867-12.288-26.699094l-28.480854-10.369706z m-65.590613 155.05408l17.708373 6.444374 42.939734-117.971627-17.708374-6.444373-42.939733 117.9648z"  horiz-adv-x="1024" />

    
    <glyph glyph-name="zhongfuqiandao" unicode="&#58908;" d="M512-128c-282.76736 0-512 229.23264-512 512S229.23264 896 512 896s512-229.23264 512-512-229.23264-512-512-512z m0 27.306667c267.687253 0 484.693333 217.00608 484.693333 484.693333S779.687253 868.693333 512 868.693333 27.306667 651.687253 27.306667 384s217.00608-484.693333 484.693333-484.693333zM512-90.453333c-262.034773 0-474.453333 212.41856-474.453333 474.453333S249.965227 858.453333 512 858.453333s474.453333-212.41856 474.453333-474.453333-212.41856-474.453333-474.453333-474.453333z m0 6.826666c258.266453 0 467.626667 209.360213 467.626667 467.626667S770.266453 851.626667 512 851.626667 44.373333 642.266453 44.373333 384s209.360213-467.626667 467.626667-467.626667zM756.736 626.920107c-94.0032 94.590293-235.1104 127.453867-362.646187 81.032533-127.317333-46.332587-214.213973-161.8944-225.662293-294.52288l6.806187-0.587093c11.216213 130.00704 96.392533 243.275093 221.190826 288.699733 125.00992 45.499733 263.325013 13.284693 355.47136-79.435093l4.846934 4.8128zM268.322133 140.014933c94.037333-93.7984 234.564267-126.211413 361.59488-79.9744 126.64832 46.093653 213.34016 160.699733 225.4848 292.5568l-6.79936 0.628054c-11.905707-129.256107-96.877227-241.595733-221.02016-286.774614-124.5184-45.32224-262.260053-13.550933-354.440533 78.39744l-4.819627-4.83328zM279.722667 143.189333c91.327147-87.9616 225.396053-117.671253 346.68544-73.5232 121.81504 44.3392 205.59872 154.023253 218.48064 280.71936l-13.585067 1.385814c-12.356267-121.541973-92.71296-226.747733-209.565013-269.277867-116.34688-42.345813-244.9408-13.851307-332.547414 70.526293l-9.468586-9.8304z m464.554666 481.621334C652.950187 712.772267 518.88128 742.48192 397.591893 698.333867c-121.698987-44.291413-205.441707-153.8048-218.446506-280.3712l13.585066-1.39264c12.47232 121.40544 92.79488 226.440533 209.53088 268.936533 116.34688 42.345813 244.9408 13.851307 332.547414-70.526293l9.468586 9.8304zM130.205013 495.616l7.59808-21.68832-19.633493 11.946667-18.281813-13.933227 5.290666 22.370987-18.90304 13.079893 22.910294 1.877333 6.601386 22.016 8.86784-21.203626 22.97856 0.525653zM733.83936 715.32544l-22.985387 0.273067 17.94048 14.370133-6.84032 21.947733 19.21024-12.629333 18.75968 13.29152-6.075733-22.173013 18.432-13.728427-22.95808-1.078613-7.365973-21.777067zM266.274133 43.874987l-22.97856 0.273066 17.94048 14.37696-6.84032 21.940907 19.21024-12.622507 18.752854 13.284694-6.068907-22.166187 18.432-13.735253-22.95808-1.078614-7.365973-21.777066zM919.975253 281.8048l7.604907-21.695147-19.64032 11.946667-18.281813-13.9264 5.290666 22.36416-18.896213 13.079893 22.903467 1.877334 6.601386 22.022826 8.86784-21.210453 22.97856 0.525653zM433.4592 599.784107l-20.855467-29.04064-2.300586 35.682986-34.065067 10.861227 33.225387 13.216427-0.197974 35.751253 22.8352-27.511467 33.942187 11.236694-19.114667-30.221654 21.17632-28.808533zM343.811413 558.803627l-6.47168-23.026347-9.60512 21.899947-23.893333-0.96256 17.85856 15.906133-8.301227 22.418773 20.64384-12.06272 18.75968 14.813867-5.092693-23.354027 19.892907-13.264213zM528.479573 626.018987l-19.749546-13.482667 6.71744 22.951253-18.92352 14.62272 23.90016 0.703147 8.055466 22.514347 8.055467-22.514347 23.906987-0.703147-18.92352-14.62272 6.71744-22.951253zM611.580587 621.615787l-17.360214-4.430507 10.60864 14.445227-9.577813 15.141546 17.012053-5.625173 11.44832 13.789867-0.1024-17.926827 16.657067-6.621867-17.073493-5.440853-1.160534-17.885867zM289.396053 504.354133l1.344854-17.87904-12.376747 12.96384-16.581973-6.806186 8.4992 15.776426-11.59168 13.666987 17.626453-3.208533 9.4208 15.250773 2.389333-17.762987 17.414827-4.232533zM606.242133 125.078187l-20.862293-29.04064-2.300587 35.682986-34.065066 10.861227 33.225386 13.216427-0.191146 35.751253 22.828373-27.511467 33.949013 11.229867-19.114666-30.214827 21.17632-28.808533zM697.36448 186.210987l-6.47168-23.01952-9.60512 21.899946-23.893333-0.96256 17.85856 15.906134-8.301227 22.418773 20.64384-12.069547 18.766507 14.82752-5.09952-23.360853 19.892906-13.264213zM497.138347 113.33632l-19.749547-13.47584 6.71744 22.951253-18.92352 14.615894 23.893333 0.703146 8.062294 22.514347 8.055466-22.514347 23.90016-0.703146-18.916693-14.615894 6.710613-22.951253zM411.088213 134.5536l-17.360213-4.437333 10.60864 14.445226-9.577813 15.148374 17.012053-5.632 11.44832 13.789866-0.095573-17.92 16.65024-6.621866-17.073494-5.44768-1.160533-17.885867zM756.053333 260.109653l1.35168-17.872213-12.376746 12.957013-16.581974-6.79936 8.4992 15.7696-11.59168 13.673814 17.63328-3.208534 9.413974 15.250774 2.389333-17.762987 17.421653-4.23936zM126.539093 596.1728c2.048 1.08544 4.307627 1.181013 6.772054 0.279893 2.307413-0.83968 4.000427-2.41664 5.07904-4.724053 0.9216-2.2528 0.96256-4.532907 0.12288-6.847147-0.83968-2.307413-2.33472-4.027733-4.491947-5.16096-2.205013-1.024-4.5056-1.10592-6.894933-0.238933-2.4576 0.894293-4.123307 2.41664-4.99712 4.56704-0.98304 2.102613-1.024 4.38272-0.129707 6.847147 0.928427 2.53952 2.43712 4.3008 4.539733 5.277013z m17.134934-20.097707l4.457813 12.240214 59.6992-21.72928-4.457813-12.240214-59.6992 21.72928zM164.84352 671.51872l20.534613 24.4736c9.058987 10.79296 18.998613 16.459093 29.832534 16.9984 10.069333 0.539307 20.43904-3.672747 31.102293-12.629333 10.48576-8.792747 16.40448-18.363733 17.77664-28.706134 1.283413-10.704213-2.594133-21.449387-11.65312-32.242346l-20.384427-24.28928-67.208533 56.395093z m17.36704 2.914987l49.698133-41.704107 10.192214 12.14464c7.161173 8.533333 10.36288 16.4864 9.598293 23.866027-0.8192 7.31136-5.4272 14.49984-13.837653 21.551786-8.533333 7.168-16.411307 10.513067-23.640747 10.05568-7.33184-0.580267-14.554453-5.113173-21.66784-13.585066l-10.3424-12.32896zM277.1968 767.112533l54.592853 31.525547 5.71392-9.898667-42.994346-24.82176 12.77952-22.132053 40.441173 23.3472 5.71392-9.898667-40.441173-23.3472 13.94688-24.159573 44.803413 25.873067 5.71392-9.898667-56.40192-32.5632zM407.770453 807.922347l13.912747 2.4576 23.947947-43.8272 7.51616 49.370453 13.919573 2.4576-12.20608-66.6624-12.827307-2.266453zM584.410453 790.09792l-6.806186-38.6048-12.827307 2.259627 6.61504 37.512533c1.877333 10.6496-2.061653 16.83456-11.823787 18.55488a13.18912 13.18912 0 0 1-10.24-2.184533c-3.515733-2.4576-5.952853-6.144-7.318186-11.0592l-6.63552-37.635414-12.834134 2.259627 11.031894 62.5664 12.834133-2.266453-1.365333-7.74144c2.874027 2.648747 6.075733 4.5056 9.58464 5.543253 3.269973 1.092267 6.92224 1.276587 10.9568 0.566613 15.5648-2.74432 21.845333-12.670293 18.827946-29.771093zM689.937067 789.149013l-10.26048-17.769813 12.561066-7.24992-5.413546-9.366187-12.561067 7.24992-18.432-31.921493c-0.8192-1.419947-1.1264-2.70336-0.94208-3.857067 0.300373-1.119573 1.092267-2.048 2.368853-2.78528l7.236267-4.17792-5.40672-9.35936-9.045333 5.2224c-4.758187 2.74432-7.482027 5.973333-8.17152 9.680214-0.750933 3.46112 0.14336 7.386453 2.68288 11.789653l18.432 31.921493-10.212694 5.89824 5.40672 9.366187 10.212694-5.89824 7.55712 13.08672 13.98784-1.829547zM832.197973 210.04288l19.278507-7.017813 4.962987 13.626026 10.15808-3.700053-4.95616-13.626027 34.638506-12.608853c1.542827-0.559787 2.860373-0.648533 3.959467-0.26624 1.051307 0.49152 1.829547 1.4336 2.33472 2.819413l2.853547 7.850667 10.164906-3.700053-3.577173-9.816747c-1.877333-5.154133-4.580693-8.3968-8.116907-9.728-3.2768-1.338027-7.304533-1.133227-12.069546 0.600747l-34.645334 12.608853-4.027733-11.086507-10.171733 3.700054 4.041386 11.086506-14.199466 5.167787-0.628054 14.09024zM818.50368 127.71328l30.02368-25.1904-8.369493-9.980587-29.184 24.480427c-8.280747 6.956373-15.60576 6.63552-21.981867-0.955733-2.471253-2.955947-3.549867-6.280533-3.222187-9.966934 0.36864-4.273493 2.341547-8.226133 5.91872-11.871573l29.272747-24.562347-8.369493-9.980586-48.667307 40.83712 8.37632 9.980586 6.02112-5.051733a24.24832 24.24832 0 0 0-0.006827 11.072853c0.689493 3.372373 2.3552 6.628693 4.983467 9.762134 10.171733 12.117333 21.899947 12.588373 35.20512 1.4336zM674.153813 43.772587l12.240214 7.0656 37.485226-32.986454-9.816746 48.960854 12.240213 7.0656 11.332267-66.812587-11.28448-6.51264zM563.15904 25.98912l62.081707 10.943147 1.979733-11.250347-48.88576-8.62208 4.437333-25.16992 45.984427 8.11008 1.979733-11.257173-45.9776-8.11008 4.846934-27.470507 50.940586 8.983893 1.979734-11.250346-64.129707-11.311787zM445.494613 28.69248l31.470934-5.543253c13.871787-2.450773 23.7568-8.226133 29.627733-17.332907 5.502293-8.451413 7.038293-19.53792 4.621653-33.252693-2.37568-13.47584-7.70048-23.38816-15.9744-29.750614-8.628907-6.464853-19.879253-8.471893-33.757866-6.027946l-31.218347 5.50912 15.230293 86.398293z m11.209387-13.57824l-11.264-63.8976 15.60576-2.751147c10.97728-1.931947 19.462827-0.723627 25.470293 3.618134 5.925547 4.369067 9.844053 11.946667 11.748694 22.760106 1.938773 10.970453 0.894293 19.47648-3.11296 25.504427-4.171093 6.06208-11.700907 10.048853-22.596267 11.973973l-15.85152 2.792107zM400.561493 31.55968c0.709973-2.21184 0.4096-4.450987-0.90112-6.71744a8.738133 8.738133 0 0 0-5.5296-4.184747 9.181867 9.181867 0 0 0-6.765226 1.06496 9.181867 9.181867 0 0 0-4.307627 5.3248 8.676693 8.676693 0 0 0 0.955733 6.826667c1.317547 2.266453 3.106133 3.64544 5.372587 4.13696 2.239147 0.600747 4.491947 0.24576 6.7584-1.06496 2.341547-1.35168 3.816107-3.147093 4.416853-5.393067z m-22.77376-13.387093l11.28448-6.51264-31.76448-55.022934-11.28448 6.519467 31.76448 55.016107zM982.084267 409.8048l4.66944-12.834133-846.779734-308.20352-4.662613 12.834133 846.779733 308.196693zM41.915733 358.1952l-4.66944 12.834133 846.779734 308.20352 4.662613-12.834133L41.915733 358.202027zM143.633067 285.30688l58.893653 21.435733-3.433813 9.427627-73.516374-26.760533-5.597866 15.40096 73.509546 26.760533-3.85024 10.581333c-13.707947-5.864107-32.836267-13.769387-57.40544-23.729493l-8.3968 13.509973c49.343147 19.70176 92.69248 38.529707 130.041174 56.48384l10.970453-12.786346a3513.99936 3513.99936 0 0 0-57.275733-25.86624l4.1984-11.543894 73.905493 26.897067 5.597867-15.394133-73.898667-26.897067 3.433813-9.434453L279.893333 334.895787l24.098134-66.198187-59.0848-21.504 3.70688-10.19904 67.167573 24.439467 5.256533-14.431574-67.167573-24.439466 3.9936-10.97728 76.786347 27.948373 5.67296-15.58528-171.281067-62.34112-5.666133 15.592107 76.20608 27.736746-3.9936 10.970454-66.587307-24.234667-5.256533 14.431573 66.587306 24.234667-3.713706 10.19904-58.886827-21.435733-24.098133 66.205013z m137.393493-8.62208l-4.34176 11.933013-41.376427-15.059626 4.34176-11.933014 41.376427 15.059627z m-59.665067-21.7088l-4.334933 11.926187-41.376427-15.059627 4.34176-11.933013 41.3696 15.059626z m-50.756266 10.717867l41.376426 15.066453-4.205226 11.543893-41.3696-15.059626 4.1984-11.543894z m55.45984 33.266346l4.1984-11.543893 41.376426 15.059627-4.1984 11.543893-41.376426-15.059627z m127.01696 93.525334l-3.21536-12.71808 110.851413 40.3456 23.115093-63.50848-76.02176-27.66848A167.949653 167.949653 0 0 0 403.899733 315.733333l84.486827 30.747307 4.68992-12.888747c-4.75136-14.083413-12.57472-27.32032-23.47008-39.71072 18.1248 2.095787 37.655893 6.51264 58.59328 13.264214l1.86368-18.28864c-27.968853-8.58112-54.285653-12.92288-78.943573-13.038934-19.770027-16.349867-45.274453-31.300267-76.526934-44.8512l-13.052586 13.120854c25.668267 10.50624 47.076693 21.56544 64.2048 33.1776-13.612373 1.870507-26.146133 4.79232-37.614934 8.751786a203.73504 203.73504 0 0 0-20.02944-23.415466l-15.107413 12.151466c17.332907 15.469227 28.808533 31.04768 34.420053 46.749014l-22.514346-8.192-19.613014 53.88288a163.935573 163.935573 0 0 0-12.6976-23.79776l-16.22016 10.4448c14.015147 21.367467 20.6848 43.772587 19.995307 67.208533l19.08736 3.242667c0.136533-5.18144 0.157013-9.60512 0.04096-13.284694l110.08 40.072534 5.67296-15.592107-118.1696-43.008z m117.725866-68.95616l-70.055253-25.4976c14.445227-3.754667 29.2864-5.61152 44.537173-5.584214 11.168427 10.021547 19.674453 20.384427 25.51808 31.081814z m-9.864533 40.871253l-3.9936 10.970453-83.33312-30.33088 3.9936-10.970453 83.33312 30.33088z m-92.228267-5.891413l83.33312 30.33088-3.925333 10.779306-83.326293-30.33088 3.918506-10.779306z m310.408534 54.35392c0.750933-16.438613-0.027307-31.68256-2.321067-45.738667l38.106453 13.86496 6.16448-16.930133-163.580586-59.542187-6.16448 16.930133 105.847466 38.529707c2.327893 14.363307 3.03104 31.402667 2.102614 51.111253l19.838293 1.774934z m-106.584747-35.30752c8.854187-7.96672 18.00192-17.926827 27.4432-29.9008l-15.01184-10.253654c-8.506027 10.99776-17.578667 20.555093-27.21792 28.672l14.78656 11.482454z m43.055787 20.02944c7.96672-8.72448 16.411307-19.74272 25.326933-33.061547l-14.88896-9.99424a268.506453 268.506453 0 0 1-25.41568 31.505067l14.977707 11.55072z m-56.203947-1.276587a816.35328 816.35328 0 0 0-24.733013-21.858987l-14.670507 12.752214c28.972373 22.596267 51.595947 45.8752 67.87072 69.81632l11.543893 4.1984c30.337707-8.280747 62.6688-11.69408 97.006934-10.24l-3.106134-19.00544a315.1872 315.1872 0 0 0-32.80896 0.9216l4.908374-13.47584-101.034667-36.775254-4.97664 13.666987z m94.808747 37.123413c-20.48 1.98656-38.877867 5.61152-55.17312 10.868054-8.895147-14.281387-20.718933-28.904107-35.47136-43.861334l90.64448 32.99328zM532.45952 454.724267c-1.501867-11.441493-3.781973-21.93408-6.847147-31.47776l-19.421866 4.25984c6.485333 18.92352 9.1136 37.82656 7.912106 56.715946l19.101014 2.594134c0.136533-3.15392 0.232107-7.61856 0.300373-13.407574l47.9232 17.442134 5.884587-16.165547-24.057174-8.751787c4.355413-4.369067 8.492373-8.97024 12.424534-13.789866l-14.37696-11.987627a256.86016 256.86016 0 0 1-16.13824 19.18976l-12.6976-4.621653z m80.636587 29.354666a156.289707 156.289707 0 0 0-4.01408-21.2992l-18.971307 4.212054c4.48512 16.01536 6.096213 31.566507 4.819627 46.646613l18.71872 2.4576c0.259413-3.106133 0.423253-7.550293 0.49152-13.33248l54.080853 19.68128 5.884587-16.165547-27.136-9.878186a173.192533 173.192533 0 0 0 15.291733-14.486187l-14.424747-12.445013a215.6544 215.6544 0 0 1-19.53792 20.138666l-15.202986-5.5296z m226.904746-62.354773a1290.19904 1290.19904 0 0 0-90.48064-50.797227l-10.601813 15.9744a1221.290667 1221.290667 0 0 1 41.847467 21.54496l-11.564374 31.757654-35.601066-12.96384-6.376107 17.517226 35.607893 12.957014-7.427413 20.39808 18.47296 6.724266 7.427413-20.39808 32.52224 11.83744 6.376107-17.5104-32.52224-11.83744 10.437973-28.672c8.758613 5.072213 20.52096 12.260693 35.293867 21.558614l6.587733-18.090667z m-153.04704 116.906667l96.802134 35.239253 6.30784-17.32608-48.305494-17.578667c-1.9456-19.012267-4.737707-34.48832-8.383146-46.421333 13.858133 6.642347 28.18048 14.178987 42.980693 22.616747-10.1376 7.49568-16.26112 11.946667-18.377387 13.366613l10.758827 14.15168c19.43552-12.683947 34.536107-23.825067 45.294933-33.42336l-11.352746-16.110933-13.141334 11.557546c-22.746453-13.366613-47.650133-26.569387-74.724693-39.621973l-9.99424 14.88896c3.072 1.55648 5.229227 2.996907 6.485333 4.328107 4.3008 7.3728 7.90528 23.210667 10.820267 47.520426l-28.863147-10.50624-6.30784 17.319254z m179.85536-125.883734l-10.48576 16.226987a457.373013 457.373013 0 0 1 26.528427 8.567467c4.87424 1.774933 6.403413 5.16096 4.573867 10.171733l-54.981974 151.067307 18.479787 6.724266 56.661333-155.68896c4.765013-13.08672 0.669013-21.988693-12.288-26.70592l-28.48768-10.369706z m-65.590613 155.05408l17.708373 6.444374 42.939734-117.971627-17.708374-6.444373-42.939733 117.9648z"  horiz-adv-x="1024" />

    
    <glyph glyph-name="money" unicode="&#58909;" d="M512 858.074074c-261.688889 0-474.074074-212.385185-474.074074-474.074074s212.385185-474.074074 474.074074-474.074074 474.074074 212.385185 474.074074 474.074074-212.385185 474.074074-474.074074 474.074074z m0-891.259259c-231.348148 0-417.185185 185.837037-417.185185 417.185185s185.837037 417.185185 417.185185 417.185185 417.185185-185.837037 417.185185-417.185185-185.837037-417.185185-417.185185-417.185185zM532.859259 592.592593c-11.377778 11.377778-28.444444 11.377778-39.822222 0l-187.733333-187.733334c-11.377778-11.377778-11.377778-28.444444 0-39.822222l187.733333-187.733333c11.377778-11.377778 28.444444-11.377778 39.822222 0l187.733334 187.733333c11.377778 11.377778 11.377778 28.444444 0 39.822222l-187.733334 187.733334z m-20.859259-356.503704l-147.911111 147.911111 147.911111 147.911111 147.911111-147.911111-147.911111-147.911111z"  horiz-adv-x="1024" />

    
    <glyph glyph-name="share" unicode="&#58910;" d="M887.466667 389.688889c-15.17037 0-28.444444-13.274074-28.444445-28.444445v-343.229629c0-3.792593-3.792593-7.585185-7.585185-7.585185h-686.459259c-3.792593 0-7.585185 3.792593-7.585185 7.585185v686.459259c0 3.792593 3.792593 7.585185 7.585185 7.585185h343.229629c15.17037 0 28.444444 13.274074 28.444445 28.444445s-13.274074 28.444444-28.444445 28.444444h-343.229629c-36.02963 0-64.474074-28.444444-64.474074-64.474074v-686.459259c0-36.02963 28.444444-64.474074 64.474074-64.474074h686.459259c36.02963 0 64.474074 28.444444 64.474074 64.474074v343.229629c0 15.17037-13.274074 28.444444-28.444444 28.444445zM915.911111 645.688889l-161.185185 161.185185c-11.377778 11.377778-28.444444 11.377778-39.822222 0-11.377778-11.377778-11.377778-28.444444 0-39.822222l100.503703-100.503704c-237.037037 7.585185-439.940741-191.525926-468.385185-464.592592-1.896296-17.066667 9.481481-30.340741 24.651852-32.237037 17.066667-1.896296 30.340741 9.481481 32.237037 24.651851 26.548148 254.103704 218.074074 434.251852 434.251852 413.392593l-123.259259-123.259259c-11.377778-11.377778-11.377778-28.444444 0-39.822223 11.377778-11.377778 28.444444-11.377778 39.822222 0l161.185185 161.185186c11.377778 11.377778 11.377778 28.444444 0 39.822222z"  horiz-adv-x="1024" />

    
    <glyph glyph-name="flight-s" unicode="&#58911;" d="M512 896C228.266667 896 0 667.733333 0 384s228.266667-512 512-512 512 228.266667 512 512S795.733333 896 512 896z m260.266667-362.666667l-85.333334-85.333333-17.066666-19.2L748.8 149.333333c0-4.266667 0-8.533333-4.266667-10.666666L693.333333 85.333333c-2.133333-2.133333-6.4-4.266667-10.666666-4.266666s-6.4 4.266667-8.533334 6.4l-121.6 213.333333-70.4-70.4 8.533334-91.733333c0-4.266667 0-6.4-4.266667-10.666667l-40.533333-40.533333c-2.133333-2.133333-6.4-4.266667-8.533334-4.266667h-2.133333c-4.266667 0-6.4 4.266667-8.533333 6.4l-57.6 132.266667-128 51.2c-4.266667 2.133333-6.4 4.266667-8.533334 8.533333 0 4.266667 0 8.533333 2.133334 10.666667l38.4 38.4c2.133333 2.133333 6.4 4.266667 8.533333 4.266666l96-8.533333 87.466667 87.466667-206.933334 110.933333c-4.266667 2.133333-6.4 4.266667-6.4 8.533333s0 8.533333 4.266667 10.666667l49.066667 49.066667c2.133333 2.133333 6.4 4.266667 10.666666 4.266666l275.2-61.866666 87.466667 87.466666c23.466667 23.466667 64 23.466667 89.6-2.133333l4.266667-4.266667c12.8-12.8 19.2-27.733333 19.2-44.8 0-10.666667-6.4-27.733333-19.2-38.4z"  horiz-adv-x="1024" />

    
    <glyph glyph-name="flight-s1" unicode="&#58912;" d="M0 384c0-283.733333 228.266667-512 512-512s512 228.266667 512 512S795.733333 896 512 896 0 667.733333 0 384z m232.533333 192c0 17.066667 6.4 32 19.2 44.8l4.266667 4.266667c23.466667 23.466667 66.133333 25.6 89.6 2.133333l87.466667-87.466667 275.2 61.866667c4.266667 0 8.533333 0 10.666666-4.266667l49.066667-49.066666c2.133333-2.133333 4.266667-6.4 4.266667-10.666667s-4.266667-6.4-6.4-8.533333l-206.933334-110.933334 87.466667-87.466666 96 8.533333c4.266667 0 6.4 0 8.533333-4.266667l38.4-38.4c2.133333-2.133333 4.266667-6.4 2.133334-10.666666 0-4.266667-4.266667-6.4-8.533334-8.533334l-128-51.2-57.6-132.266666c-2.133333-4.266667-4.266667-6.4-8.533333-6.4h-2.133333c-4.266667 0-6.4 2.133333-8.533334 4.266666l-40.533333 40.533334c-2.133333 2.133333-4.266667 6.4-4.266667 10.666666l8.533334 91.733334-70.4 70.4-121.6-213.333334c-2.133333-4.266667-6.4-6.4-8.533334-6.4-4.266667 0-8.533333 0-10.666666 4.266667l-51.2 51.2c-2.133333 2.133333-4.266667 6.4-4.266667 10.666667l78.933333 279.466666-17.066666 17.066667-85.333334 85.333333c-12.8 10.666667-19.2 27.733333-19.2 42.666667z"  horiz-adv-x="1024" />

    
    <glyph glyph-name="photo-s" unicode="&#58913;" d="M825.344 686.592h-627.2c-24.576 0-45.056-19.968-45.056-45.056v-515.072c0-24.576 19.968-45.056 45.056-45.056h627.2c24.576 0 45.056 19.968 45.056 45.056V641.5360000000001c0 24.576-19.968 45.056-45.056 45.056z m-1.536-517.12l-147.456 151.552-81.92-74.24c-9.728-7.168-23.552-8.704-30.72 1.024l-185.344 185.344-179.712-174.08v62.464l163.84 159.232c4.608 4.096 10.752 6.144 16.896 6.144 6.144-0.512 11.776-3.072 15.872-8.192l185.344-183.296 84.48 73.728c8.704 6.656 21.504 6.144 29.184-2.048l131.584-134.656V168.44799999999998c-1.024-0.512-1.536 0-2.048 1.024z m-110.08 337.408c0-24.576-19.968-44.544-44.544-44.544s-44.544 19.968-44.544 44.544 19.968 44.544 44.544 44.544 44.544-19.456 44.544-44.544z"  horiz-adv-x="1024" />

    
    <glyph glyph-name="vote" unicode="&#58914;" d="M616.4 2.9H399.9c-10.9 0-19.7 8.3-19.7 18.5v758c0 10.2 8.8 18.5 19.7 18.5h216.5c10.9 0 19.7-8.3 19.7-18.5v-757.9c0-10.3-8.8-18.6-19.7-18.6z m-196.8 37h177.1v721H419.6v-721zM832.8 3H616.4c-10.9 0-19.7 8.3-19.7 18.5v573c0 10.2 8.8 18.5 19.7 18.5h216.5c10.9 0 19.7-8.3 19.7-18.5v-573c-0.1-10.2-8.9-18.5-19.8-18.5z m-196.7 37h177.1V576H636.1v-536z m-236.2-37.1H183.5c-10.9 0-19.7 8.3-19.7 18.5V465.1c0 10.2 8.8 18.5 19.7 18.5H400c10.9 0 19.7-8.3 19.7-18.5v-443.7c-0.1-10.2-8.9-18.5-19.8-18.5z m-196.8 37h177.1V446.6H203.1v-406.7zM913.1 2.9H103.9c-10.2 0-18.5 8.3-18.5 18.5s8.3 18.5 18.5 18.5h809.2c10.2 0 18.5-8.3 18.5-18.5s-8.3-18.5-18.5-18.5z"  horiz-adv-x="1024" />

    
    <glyph glyph-name="seat" unicode="&#58915;" d="M868.864 604.672H808.96V728.576c0 27.136-18.944 49.152-41.984 49.152H253.952c-23.04 0-41.984-22.016-41.984-49.152v-123.904h-59.904V738.816c0 51.712 38.912 93.696 86.528 93.696h543.744c47.616 0 86.528-41.984 86.528-93.696v-134.144zM862.208 4.096h-69.632c-50.688 0-91.648 43.008-91.648 95.744v1.024H320v-1.024c0-52.736-41.472-95.744-91.648-95.744H158.72c-50.688 0-91.648 43.008-91.648 95.744V531.968c0 52.736 36.352 95.744 86.528 95.744h64.512c79.36 0 101.888-43.008 101.888-95.744v-174.08l380.416 0.512 0.512 173.568c0 52.736 31.744 95.232 97.28 95.232h74.752c50.688 0 81.408-43.008 81.408-95.744v-432.128c-0.512-52.224-41.472-95.232-92.16-95.232zM266.752 157.184h486.912v-35.84c0-25.088 18.944-45.568 42.496-45.568h62.464c23.552 0 42.496 20.48 42.496 45.568V509.952c0 25.088-18.944 45.568-42.496 45.568H796.16c-23.552 0-42.496-20.48-42.496-45.568l-0.512-211.456-486.4-0.512V509.952c0 25.088-18.944 45.568-42.496 45.568h-62.464c-23.552 0-42.496-20.48-42.496-45.568v-388.608c0-25.088 18.944-45.568 42.496-45.568h62.464c23.552 0 42.496 20.48 42.496 45.568v35.84z"  horiz-adv-x="1024" />

    
    <glyph glyph-name="photo" unicode="&#58916;" d="M198.4 81.5h627.2c24.6 0 44.8 20.2 44.8 44.8V641.7c0 24.6-20.2 44.8-44.8 44.8H198.4c-24.6 0-44.8-20.2-44.8-44.8v-515.3c0-24.7 20.2-44.9 44.8-44.9z m0 44.8v132l179.8 174.2 185.3-185.1c7.6-9.3 21.2-8.1 30.9-0.8l81.8 74.1 147.6-151.5c0.6-0.6 1.2-1.1 1.8-1.6v-41.3H198.4z m627.2 515.4v-410.1L694 366.2c-8 7.9-20.5 8.7-29.4 1.9l-84.4-73.5-185.4 183.5c-4 4.8-9.7 7.7-15.9 8.1-6.2 0.2-12.3-1.8-16.8-6L198.4 320.9V641.7h627.2zM668.8 462.3c24.7 0 44.7 20 44.7 44.7 0 24.7-20 44.7-44.7 44.7-24.7 0-44.7-20-44.7-44.7 0-24.7 20-44.7 44.7-44.7z"  horiz-adv-x="1024" />

    
    <glyph glyph-name="camera" unicode="&#58917;" d="M850.922 585.756c-8.883 9.003-21.353 14.297-33.887 14.297-12.533 0-25.005-5.233-33.886-14.297-8.882-9.065-14.053-21.719-14.053-34.495h95.88c-0.062 12.775-5.173 25.43-14.054 34.495zM513.396 144.444c105.736 0 191.76 87.544 191.76 195.226s-86.025 195.225-191.76 195.225c-105.733 0-191.758-87.543-191.758-195.225 0.001-107.622 85.964-195.226 191.758-195.226z m0 325.417c70.511 0 127.82-58.403 127.82-130.191 0-71.788-57.37-130.192-127.82-130.192-70.509 0-127.818 58.404-127.818 130.192-0.06 71.848 57.309 130.191 127.818 130.191z m351.518 227.835H513.396c-17.642 0-31.939-14.601-31.939-32.548s14.297-32.548 31.939-32.548h351.579c17.642 0 31.939-14.6 31.939-32.547v-520.645c0-17.946-14.297-32.547-31.939-32.547H161.82c-17.582 0-31.94 14.601-31.94 32.547V600.053c0 17.947 14.358 32.547 31.94 32.547h95.88c17.642 0 31.939 14.601 31.939 32.548s-14.297 32.548-31.939 32.548h-95.88c-52.868 0-95.88-43.802-95.88-97.643v-520.645c0-53.84 43.012-97.643 95.88-97.643h703.094c52.868 0 95.88 43.803 95.88 97.643V600.053c0.06 53.841-43.013 97.643-95.88 97.643z m-575.275 22.327h178.982c12.35 0 22.388 10.038 22.388 22.388v22.388c0 12.35-10.038 22.388-22.388 22.388H289.639c-12.35 0-22.389-10.038-22.389-22.388v-22.388c0.061-12.35 10.039-22.388 22.389-22.388z"  horiz-adv-x="1024" />

    
    <glyph glyph-name="product" unicode="&#58918;" d="M151.703704 516.740741v-493.037037h493.037037v493.037037h-493.037037z m-18.962963 56.888889h530.962963c20.859259 0 37.925926-17.066667 37.925926-37.925926v-530.962963c0-20.859259-17.066667-37.925926-37.925926-37.925926h-530.962963c-20.859259 0-37.925926 17.066667-37.925926 37.925926v530.962963c0 20.859259 17.066667 37.925926 37.925926 37.925926zM227.555556 640h534.755555c1.896296 0 5.688889-1.896296 5.688889-5.688889v-534.755555c0-15.17037 13.274074-28.444444 28.444444-28.444445s28.444444 13.274074 28.444445 28.444445v534.755555c0 34.133333-28.444444 62.577778-62.577778 62.577778H227.555556c-15.17037 0-28.444444-13.274074-28.444445-28.444445s13.274074-28.444444 28.444445-28.444444zM341.333333 753.777778h534.755556c1.896296 0 5.688889-1.896296 5.688889-5.688889v-534.755556c0-15.17037 13.274074-28.444444 28.444444-28.444444s28.444444 13.274074 28.444445 28.444444v534.755556c0 34.133333-28.444444 62.577778-62.577778 62.577778H341.333333c-15.17037 0-28.444444-13.274074-28.444444-28.444445s13.274074-28.444444 28.444444-28.444444z"  horiz-adv-x="1024" />

    
    <glyph glyph-name="iphoto-s" unicode="&#58880;" d="M95.232 810.496v-853.504h833.024V810.496h-833.024zM636.416 752.1279999999999h212.48c6.656 0 11.264-5.12 16.384-9.728 5.12-3.072 6.656-11.264 5.12-17.92V511.488c0-13.312-11.264-24.576-24.576-24.576s-24.576 11.264-24.576 24.576v191.488h-184.832c-13.312 0-24.576 11.264-24.576 24.576s11.264 24.576 24.576 24.576z m153.6-343.552v-49.152h-556.032v49.152h556.032z m-637.44 313.856c0 8.192 3.072 16.384 8.192 19.456 5.12 5.12 11.264 9.728 19.456 9.728h212.48c13.312 0 24.576-11.264 24.576-24.576s-11.264-24.576-24.576-24.576h-191.488V511.488c0-13.312-11.264-24.576-24.576-24.576-14.848 0-24.576 9.728-24.576 23.04v212.48z m238.592-706.048h-212.48c-6.656 0-13.312 0-17.92 5.12-5.12 3.072-8.192 8.192-8.192 14.848v212.48c0 13.312 11.264 24.576 24.576 24.576 13.312 0 24.576-11.264 24.576-24.576v-183.296h189.44c14.848 0 24.576-11.264 24.576-24.576s-11.776-24.576-24.576-24.576z m480.256 19.456c0-6.656-1.536-9.728-6.656-14.848s-9.728-5.12-16.384-5.12h-212.48c-13.312 0-24.576 11.264-24.576 24.576s11.264 24.576 24.576 24.576h186.368v184.832c0 13.312 11.264 24.576 24.576 24.576 13.312 0 24.576-11.264 24.576-26.112v-212.48z"  horiz-adv-x="1024" />

    
    <glyph glyph-name="close" unicode="&#58919;" d="M512 896C229.187 896 0 666.813 0 384s229.187-512 512-512 512 229.187 512 512S794.813 896 512 896z m0-970.105C259.368-74.10500000000002 53.895 131.36800000000005 53.895 384S259.368 842.105 512 842.105 970.105 636.6320000000001 970.105 384 764.632-74.10500000000002 512-74.10500000000002zM550.13 384l169.5 169.634a26.597 26.597 0 0 1 0 37.995 26.597 26.597 0 0 1-37.996 0L512 422.131 342.366 591.629a26.597 26.597 0 0 1-37.995 0 26.597 26.597 0 0 1 0-37.995L473.869 384 304.371 214.36599999999999a26.597 26.597 0 0 1 0-37.995c5.254-5.255 12.126-7.95 18.997-7.95 6.872 0 13.744 2.695 18.998 7.95L512 345.869l169.634-169.498c5.254-5.255 12.126-7.95 18.998-7.95 6.871 0 13.743 2.695 18.997 7.95a26.597 26.597 0 0 1 0 37.995L550.131 384z"  horiz-adv-x="1024" />

    


  </font>
</defs>
</svg>
